<?xml version="1.0" encoding="UTF-8" ?>
<!DOCTYPE svg PUBLIC "-//W3C//DTD SVG 1.1//EN" "http://www.w3.org/Graphics/SVG/1.1/DTD/svg11.dtd">
<svg width="500pt" height="500pt" viewBox="0 0 500 500" version="1.1" xmlns="http://www.w3.org/2000/svg">
<path fill="#543233" opacity="1.00" d=" M 187.27 70.24 C 207.52 60.25 230.95 58.53 253.07 61.52 C 269.31 62.53 284.65 69.05 298.20 77.76 C 304.82 82.81 310.33 89.15 315.68 95.47 C 320.98 101.53 323.30 109.54 328.74 115.50 C 333.07 121.58 337.19 129.62 334.60 137.16 C 343.71 144.47 350.15 154.51 354.99 165.01 C 357.62 171.36 360.59 177.71 365.26 182.85 C 371.96 190.13 381.18 194.35 390.41 197.46 C 392.81 198.13 395.45 198.35 397.43 200.03 C 392.36 201.03 387.19 202.05 382.01 201.41 C 376.48 200.75 371.10 199.24 365.70 197.94 C 367.00 201.22 368.38 204.50 369.24 207.94 C 370.23 216.88 370.64 227.09 364.62 234.50 C 361.88 237.80 359.10 241.92 354.59 242.74 C 358.61 234.60 359.81 225.48 359.88 216.49 C 355.95 222.51 351.64 228.44 345.89 232.85 C 342.55 235.41 338.58 236.90 334.76 238.58 C 335.10 248.69 333.25 260.11 325.22 267.09 C 324.72 260.83 323.90 254.57 321.85 248.60 C 315.91 262.03 303.26 273.75 288.15 274.91 C 288.05 275.24 287.84 275.91 287.74 276.24 C 296.32 280.49 303.16 289.07 303.67 298.85 C 312.51 302.45 321.15 306.52 330.06 309.95 C 338.39 313.20 345.91 318.09 353.89 322.05 C 363.61 326.79 372.23 333.61 382.40 337.46 C 389.74 339.60 397.47 339.03 405.00 339.61 C 412.86 340.53 420.93 341.46 428.14 344.95 C 429.61 345.55 430.45 346.96 431.41 348.15 C 435.11 348.91 438.90 349.32 442.69 349.20 C 446.94 348.93 451.16 348.28 455.43 348.19 C 452.30 352.93 446.37 354.26 441.53 356.59 C 438.84 357.66 436.14 358.71 433.45 359.78 C 434.71 360.63 435.97 361.49 437.24 362.35 C 434.78 364.82 431.47 365.94 428.45 367.50 C 424.89 380.98 419.60 394.57 409.58 404.64 C 405.87 408.28 400.09 407.94 395.30 407.53 C 390.15 406.66 384.86 405.96 380.04 403.86 C 377.04 402.82 378.76 398.28 375.70 397.33 C 368.30 393.52 359.83 392.86 352.12 389.94 C 343.24 386.35 334.42 382.61 325.48 379.15 C 329.96 385.87 334.91 392.31 338.50 399.58 C 346.77 416.24 350.87 435.13 349.67 453.73 C 348.66 461.05 346.59 469.00 340.72 473.98 C 343.00 476.05 345.25 478.16 347.50 480.27 C 346.96 480.49 346.41 480.72 345.88 480.95 C 343.65 478.75 341.37 476.61 339.09 474.47 C 338.49 474.77 337.27 475.38 336.66 475.68 C 337.22 474.85 337.78 474.02 338.35 473.20 C 333.56 468.91 328.94 464.43 324.51 459.78 C 324.89 459.74 325.65 459.66 326.02 459.62 C 330.37 464.14 335.03 468.36 339.41 472.85 C 346.49 465.91 348.93 455.64 348.37 446.00 C 347.28 428.68 343.42 411.25 334.86 396.02 C 332.06 390.98 328.47 386.45 325.45 381.56 C 324.40 379.95 323.38 378.15 321.48 377.46 C 314.85 374.61 308.22 371.73 301.92 368.20 C 300.17 367.21 298.45 366.17 296.85 364.97 C 296.77 364.57 296.60 363.77 296.52 363.37 C 299.29 365.44 302.32 367.11 305.41 368.65 C 311.64 371.88 318.02 374.89 324.63 377.29 C 337.37 381.61 349.37 388.09 362.54 391.11 C 367.94 392.47 373.24 394.23 378.24 396.73 C 380.75 388.00 383.66 379.39 386.02 370.62 C 389.39 360.72 392.53 350.70 397.14 341.29 C 391.11 340.20 384.69 340.70 379.06 337.94 C 368.66 332.90 359.15 326.25 348.77 321.18 C 339.21 315.63 329.19 310.96 318.84 307.12 C 308.62 302.42 298.20 298.12 287.49 294.70 C 286.43 294.38 285.38 294.08 284.34 293.78 C 280.97 299.64 276.69 304.87 272.54 310.17 C 266.81 316.31 260.41 321.81 253.52 326.60 C 251.75 328.18 249.38 327.69 247.48 326.68 C 247.17 326.22 246.56 325.30 246.25 324.84 C 248.23 325.44 250.60 327.33 252.55 325.68 C 266.16 316.32 278.06 303.92 285.33 288.98 C 281.49 287.97 277.63 287.00 273.88 285.71 C 267.22 283.04 260.94 279.50 254.94 275.59 C 254.37 277.92 253.72 280.28 252.28 282.25 C 249.13 286.75 246.01 291.28 243.12 295.96 C 239.01 302.20 235.15 308.64 232.18 315.51 C 231.23 315.49 230.28 315.48 229.33 315.47 C 229.21 309.57 229.35 303.68 229.74 297.80 C 230.36 291.27 231.04 284.67 233.36 278.49 C 225.04 280.36 217.11 283.61 209.30 286.97 C 208.00 287.45 206.66 287.84 205.34 288.26 C 208.11 285.99 211.43 284.59 214.67 283.12 C 209.91 282.21 205.02 281.41 200.73 279.05 C 198.10 277.71 195.88 275.68 193.22 274.40 C 192.13 274.74 191.05 275.13 190.00 275.57 C 191.26 278.49 192.59 281.38 193.94 284.27 L 193.58 285.73 C 190.16 279.29 187.25 272.36 187.01 264.97 C 183.58 262.41 179.94 259.98 177.33 256.53 C 175.44 253.86 174.83 250.56 173.86 247.50 C 174.21 247.78 174.90 248.33 175.25 248.61 C 176.33 251.68 177.21 255.01 179.62 257.36 C 185.64 263.54 193.60 267.33 201.55 270.42 C 209.00 273.38 217.10 273.87 225.03 274.28 C 231.51 274.67 237.74 272.48 243.95 270.93 C 255.37 267.91 266.14 261.57 273.32 252.06 C 275.52 249.19 276.01 245.47 276.93 242.09 C 273.14 245.64 270.21 250.52 265.07 252.30 C 267.33 249.50 270.57 247.49 272.16 244.17 C 273.15 242.15 273.86 240.02 274.71 237.94 C 275.01 237.86 275.61 237.70 275.91 237.62 C 275.27 239.56 274.65 241.50 274.11 243.47 C 275.85 241.41 277.48 239.24 278.76 236.86 C 279.20 235.94 279.60 235.01 280.01 234.09 C 280.64 232.53 281.35 230.96 282.63 229.81 C 281.99 233.60 279.77 236.81 278.33 240.30 C 277.17 244.89 276.74 249.69 274.81 254.06 C 272.02 256.13 269.46 258.46 266.90 260.78 C 264.21 263.23 260.80 264.73 258.11 267.15 C 256.67 269.31 255.88 271.81 254.90 274.20 C 256.84 275.35 258.66 276.97 260.97 277.29 C 271.79 277.29 282.31 272.06 288.96 263.54 L 290.40 262.50 C 289.50 266.36 288.61 270.22 287.59 274.06 C 293.93 272.73 300.34 270.76 305.52 266.72 C 309.60 263.44 313.34 259.70 316.45 255.48 C 318.94 252.17 319.96 248.07 321.79 244.40 C 324.14 250.67 325.97 257.14 326.80 263.79 C 332.10 256.51 333.48 247.25 333.37 238.45 C 329.37 239.60 325.36 242.24 321.07 241.08 C 328.40 239.26 335.61 236.78 342.22 233.10 C 348.75 229.53 353.58 223.58 357.47 217.36 C 359.41 214.49 359.47 210.97 359.71 207.64 C 360.29 208.31 360.65 209.07 360.81 209.91 C 360.93 220.16 360.86 230.65 357.01 240.32 C 361.92 235.98 366.69 230.65 367.66 223.91 C 368.35 219.29 368.49 214.56 367.91 209.92 C 367.27 204.91 364.81 200.40 362.98 195.76 C 372.58 198.50 382.45 201.29 392.54 200.10 C 385.43 196.72 377.57 194.73 371.27 189.81 C 361.53 183.37 356.08 172.51 351.90 161.98 C 347.16 152.13 340.54 142.81 331.38 136.63 C 325.26 132.59 317.70 131.56 310.53 132.62 C 313.48 136.84 315.51 141.84 315.48 147.04 C 315.54 149.22 314.21 151.05 312.88 152.64 C 311.15 153.59 309.36 154.44 307.59 155.30 C 307.64 155.57 307.73 156.10 307.77 156.37 C 307.70 156.91 307.54 157.98 307.46 158.52 C 307.16 157.84 306.56 156.48 306.26 155.79 C 299.25 157.21 292.86 152.20 290.90 145.67 C 290.75 143.93 290.70 142.18 290.65 140.44 C 286.77 143.19 282.70 145.67 278.47 147.83 C 265.68 152.71 251.89 153.99 238.30 153.36 C 238.43 164.42 244.93 174.03 251.01 182.80 C 259.28 181.94 266.70 178.00 273.52 173.49 C 268.09 179.74 259.57 182.20 251.71 183.72 C 254.95 187.70 258.36 191.55 262.13 195.03 C 266.85 199.22 271.73 203.76 278.01 205.39 C 278.59 205.58 279.76 205.97 280.35 206.16 C 280.46 214.94 279.68 223.80 277.49 232.32 C 277.19 232.21 276.60 231.97 276.30 231.86 C 277.08 228.64 277.80 225.40 278.22 222.11 C 278.42 220.32 278.62 218.53 278.79 216.75 C 278.94 215.18 279.10 213.62 279.24 212.06 C 276.43 210.22 274.32 207.57 271.95 205.25 C 273.01 208.28 274.09 211.34 274.44 214.56 C 274.45 218.47 273.75 222.42 271.88 225.89 L 271.15 226.63 L 271.19 225.39 C 271.82 222.64 272.76 219.98 273.25 217.20 C 273.14 215.46 272.98 213.73 272.73 212.00 C 272.29 209.80 271.38 207.74 270.10 205.91 C 266.72 203.17 262.37 201.52 258.01 201.72 C 252.65 204.27 252.59 211.34 252.68 216.47 C 253.50 220.17 255.40 223.59 258.19 226.18 C 258.74 226.57 259.85 227.35 260.40 227.75 C 260.04 227.90 259.31 228.21 258.95 228.36 C 253.27 224.55 250.54 217.48 251.44 210.79 C 251.96 207.27 253.50 204.04 255.66 201.25 C 250.31 201.01 245.14 202.55 240.39 204.89 C 240.17 204.65 239.74 204.19 239.53 203.95 C 240.52 203.43 241.51 202.91 242.52 202.41 L 242.67 202.35 C 250.32 198.42 259.09 199.05 267.22 200.87 C 265.46 199.71 263.67 198.62 261.89 197.51 C 261.42 196.83 260.94 196.16 260.45 195.51 C 256.99 191.49 253.26 187.68 250.03 183.47 C 249.19 183.48 247.52 183.49 246.68 183.50 C 247.54 183.09 248.41 182.68 249.29 182.28 C 245.53 177.37 242.70 171.88 239.63 166.55 C 241.09 178.08 242.29 189.67 242.36 201.30 C 240.88 201.27 239.41 201.21 237.94 201.11 C 232.29 197.96 229.12 191.91 226.03 186.47 C 226.27 191.05 226.54 195.63 226.98 200.20 C 223.41 202.50 219.36 204.14 215.06 204.18 C 211.39 203.97 208.66 207.24 205.00 207.03 C 202.41 204.87 201.51 201.43 199.94 198.57 C 198.37 192.05 196.52 185.56 195.93 178.85 C 194.84 181.35 193.79 183.88 192.74 186.41 C 193.98 186.67 195.24 186.95 196.48 187.24 C 195.04 187.46 193.60 187.68 192.16 187.89 C 189.43 193.58 185.89 198.82 182.09 203.85 C 184.08 203.10 186.05 202.29 188.09 201.68 C 191.58 201.46 195.08 201.33 198.58 201.35 C 192.89 202.42 186.93 202.02 181.68 204.86 C 178.31 208.89 174.07 212.06 170.63 216.01 C 171.33 224.61 174.59 232.72 178.04 240.54 C 176.81 239.56 175.59 238.56 174.39 237.55 C 174.46 239.35 174.53 241.14 174.60 242.94 C 173.68 243.79 172.81 244.71 171.95 245.62 C 166.29 245.50 160.87 243.77 155.51 242.13 C 155.81 244.11 157.15 246.26 156.09 248.24 C 153.82 253.36 152.02 258.70 151.31 264.27 C 150.97 263.02 150.65 261.77 150.33 260.53 L 150.38 259.62 C 145.34 257.46 140.90 254.22 137.19 250.19 C 138.30 255.72 139.22 261.66 143.16 266.00 C 136.16 267.65 129.18 264.38 123.58 260.43 C 118.45 255.76 113.62 250.08 112.34 243.05 C 110.19 234.73 112.09 226.03 115.41 218.30 C 108.97 223.29 100.90 227.04 92.60 226.24 C 102.03 223.28 108.82 215.67 114.38 207.88 C 116.98 204.09 118.58 199.60 118.46 194.96 C 118.30 184.81 120.91 174.66 125.71 165.74 C 121.56 163.44 117.06 161.63 113.43 158.51 C 110.64 156.26 110.85 152.02 112.02 148.97 C 115.52 142.44 121.09 137.30 127.14 133.14 C 135.32 126.44 144.80 121.59 154.56 117.65 C 156.22 116.76 158.59 116.30 159.11 114.21 C 161.36 107.83 162.13 100.98 164.75 94.72 C 168.01 87.49 173.55 81.63 179.00 75.99 C 181.30 73.50 184.22 71.68 187.27 70.24 M 202.05 66.02 C 193.87 68.78 185.35 71.84 179.13 78.09 C 174.41 82.84 169.93 87.98 166.93 94.01 C 163.87 100.29 163.25 107.36 160.99 113.91 C 160.39 115.80 159.20 117.62 157.23 118.26 C 147.67 122.22 138.06 126.54 129.97 133.11 C 125.13 136.71 119.79 139.96 116.52 145.19 L 116.15 145.26 C 113.35 148.60 110.96 154.54 115.05 157.83 C 122.25 163.50 130.90 166.92 139.47 169.92 C 137.88 169.78 136.29 169.67 134.70 169.58 C 132.13 168.55 129.64 167.31 126.97 166.55 C 123.25 174.86 119.91 183.80 120.31 193.06 C 120.50 198.60 118.86 204.17 115.71 208.74 C 111.48 214.75 106.34 220.10 100.56 224.64 C 108.07 222.49 114.95 218.22 119.71 211.99 C 119.02 215.70 116.49 218.69 115.48 222.29 C 112.86 230.84 112.10 240.55 115.95 248.85 C 121.04 257.30 129.66 264.62 139.98 264.76 C 138.23 261.09 136.85 257.20 136.36 253.15 C 136.02 251.42 136.24 249.43 135.02 248.01 C 135.63 247.32 136.25 246.63 136.87 245.94 C 139.71 251.77 145.44 256.75 151.92 257.71 C 152.56 253.93 154.00 250.36 155.73 246.96 C 155.02 244.89 155.48 241.83 153.13 240.77 C 145.88 236.76 140.69 229.10 140.14 220.77 C 137.61 224.14 136.34 228.23 135.35 232.27 L 134.69 231.07 C 136.08 226.57 137.65 222.06 140.47 218.22 C 141.69 221.93 141.42 226.06 143.59 229.45 C 148.84 240.07 161.44 244.71 172.67 244.58 C 167.89 235.79 166.94 225.75 164.37 216.24 C 164.66 216.22 165.23 216.16 165.52 216.14 C 166.38 223.08 169.38 230.02 174.51 234.86 C 171.93 228.87 169.88 222.58 169.46 216.03 C 168.69 200.23 170.43 184.35 174.33 169.03 C 175.83 164.00 177.71 158.94 180.91 154.72 C 180.68 155.91 180.40 157.10 180.18 158.30 C 174.19 166.33 173.92 176.87 171.57 186.28 C 172.82 186.56 174.07 186.86 175.32 187.19 C 180.59 187.52 185.87 187.35 191.15 187.28 C 192.26 184.89 193.30 182.47 194.11 179.97 C 196.44 173.56 194.83 166.61 196.27 160.03 C 196.90 157.57 196.37 154.13 198.79 152.56 C 194.59 167.87 196.49 184.25 201.73 199.06 C 202.71 201.38 203.48 204.00 205.41 205.75 C 208.48 206.06 210.82 202.63 213.99 202.83 C 218.04 203.06 222.04 201.85 225.49 199.78 C 225.38 193.55 224.12 187.24 224.80 180.94 C 226.49 182.55 226.79 184.99 227.81 187.00 C 229.91 191.39 232.79 195.47 236.43 198.70 C 237.74 199.98 239.61 200.09 241.30 200.45 C 241.30 184.66 238.42 169.06 237.28 153.35 C 231.75 152.83 226.77 150.30 221.47 148.92 C 220.01 148.20 218.54 147.52 217.00 147.01 C 198.58 140.92 179.35 136.76 159.89 136.60 C 156.82 140.81 154.31 145.38 151.99 150.04 C 148.31 157.53 144.93 165.20 142.30 173.13 C 142.20 172.59 141.99 171.50 141.89 170.95 C 145.86 158.91 151.46 147.40 158.24 136.68 C 142.98 136.63 127.92 141.37 115.29 149.89 C 115.29 149.55 115.29 148.87 115.29 148.53 C 117.74 147.18 120.15 145.74 122.38 144.04 C 129.32 141.05 136.36 138.09 143.87 136.89 C 152.48 135.67 161.25 134.98 169.93 135.97 C 189.50 137.38 208.63 142.53 226.95 149.41 C 233.78 152.06 241.31 152.88 248.56 151.93 C 257.66 152.62 266.76 150.38 275.36 147.54 C 281.15 145.69 286.00 141.97 291.19 138.95 C 291.39 137.81 291.59 136.67 291.78 135.53 C 294.31 131.77 298.58 130.21 302.87 129.41 C 304.06 127.04 305.79 125.01 307.83 123.32 C 311.63 122.35 315.66 121.72 319.55 122.58 C 323.71 123.88 326.92 127.34 328.46 131.35 C 329.20 133.61 331.02 136.26 333.73 135.83 C 334.43 130.79 332.92 125.76 330.71 121.28 C 328.49 116.77 324.58 113.41 322.23 108.98 C 319.49 104.00 317.13 98.50 312.65 94.80 C 308.47 88.96 303.26 83.81 297.69 79.29 C 283.77 70.15 267.69 63.87 250.96 62.90 C 234.67 60.54 217.92 61.73 202.05 66.02 M 304.19 128.98 C 306.55 130.30 309.03 132.16 311.91 131.45 C 317.57 130.55 323.24 131.50 328.55 133.52 C 326.35 128.41 322.15 123.10 316.05 123.17 C 311.31 122.64 306.79 125.07 304.19 128.98 M 300.23 131.39 C 291.40 132.29 289.37 144.38 294.72 150.24 C 299.21 156.84 310.35 155.80 314.00 148.96 C 315.00 144.45 313.25 139.79 311.21 135.81 C 309.25 131.94 304.34 129.75 300.23 131.39 M 171.66 187.16 C 170.29 196.14 170.16 205.24 170.29 214.31 C 172.87 212.23 175.27 209.93 177.43 207.42 C 182.56 201.53 187.46 195.29 190.68 188.12 C 185.41 188.63 180.07 188.73 174.82 187.96 C 174.03 187.76 172.45 187.36 171.66 187.16 M 274.99 205.88 C 276.38 207.40 277.80 208.88 279.23 210.36 C 279.20 209.56 279.15 207.95 279.12 207.15 C 277.74 206.71 276.37 206.29 274.99 205.88 M 168.05 227.96 C 168.77 232.96 170.30 237.90 172.60 242.40 C 172.71 239.84 172.93 237.23 172.34 234.72 C 171.32 232.24 169.58 230.14 168.05 227.96 M 187.94 265.62 C 194.03 276.02 205.99 282.21 217.92 282.02 C 222.59 280.47 227.18 278.64 232.01 277.59 C 232.13 277.12 232.37 276.19 232.49 275.72 C 224.63 275.54 216.72 275.39 208.97 273.92 C 201.51 272.44 194.72 268.89 187.94 265.62 M 232.53 274.90 C 233.43 276.87 234.01 278.95 234.43 281.08 C 231.39 286.28 231.14 292.81 231.44 298.71 C 230.10 304.02 230.65 309.65 230.64 315.08 C 235.18 306.29 240.19 297.72 245.77 289.53 C 248.07 285.98 250.89 282.64 252.90 278.88 C 253.61 274.99 254.67 271.16 256.50 267.63 C 248.91 271.20 240.75 273.40 232.53 274.90 M 280.03 273.05 C 281.84 273.63 283.63 274.29 285.19 275.41 C 286.91 272.79 287.09 269.49 288.07 266.58 C 285.45 268.81 282.80 271.01 280.03 273.05 M 188.23 268.82 C 188.70 270.74 189.26 272.64 189.83 274.54 C 190.56 274.23 192.02 273.60 192.76 273.28 C 191.31 271.73 189.84 270.20 188.23 268.82 M 278.30 273.98 C 273.24 276.43 267.75 277.78 262.16 278.12 C 267.89 282.74 275.17 284.94 282.19 286.79 C 283.72 287.19 285.28 287.70 286.42 288.85 C 286.45 290.34 285.45 291.63 284.98 293.01 C 290.98 293.96 296.41 296.83 302.20 298.50 C 301.78 293.68 299.76 289.14 296.76 285.38 C 292.24 279.43 285.20 276.27 278.30 273.98 M 379.61 397.05 C 379.33 398.34 379.00 399.63 378.87 400.95 C 379.96 403.24 382.81 403.51 384.96 404.22 C 390.79 405.47 396.79 407.28 402.79 406.13 C 406.63 406.44 409.45 403.25 411.66 400.53 C 423.82 385.55 428.85 365.93 429.48 346.94 C 419.95 342.20 409.17 341.09 398.70 340.42 C 390.50 358.62 385.16 377.93 379.61 397.05 M 430.67 349.21 C 430.58 352.10 430.07 354.95 429.89 357.83 C 430.37 358.22 431.34 358.99 431.82 359.38 C 438.79 355.85 446.56 353.93 453.04 349.48 C 445.63 350.38 437.99 351.13 430.67 349.21 M 429.66 359.31 C 429.26 361.54 428.86 363.78 428.49 366.02 C 430.83 365.00 433.17 363.93 435.43 362.72 C 433.64 361.36 431.67 360.29 429.66 359.31 Z" />
<path fill="#8fb792" opacity="1.00" d=" M 202.05 66.02 C 217.92 61.73 234.67 60.54 250.96 62.90 C 267.69 63.87 283.77 70.15 297.69 79.29 C 303.26 83.81 308.47 88.96 312.65 94.80 C 314.54 101.29 319.12 106.89 319.91 113.69 C 316.31 117.41 311.50 119.66 307.83 123.32 C 305.79 125.01 304.06 127.04 302.87 129.41 C 298.58 130.21 294.31 131.77 291.78 135.53 C 278.33 143.29 263.51 148.05 248.56 151.93 C 241.31 152.88 233.78 152.06 226.95 149.41 C 208.63 142.53 189.50 137.38 169.93 135.97 C 161.25 134.98 152.48 135.67 143.87 136.89 C 136.36 138.09 129.32 141.05 122.38 144.04 C 120.44 144.50 118.48 144.86 116.52 145.19 C 119.79 139.96 125.13 136.71 129.97 133.11 C 138.06 126.54 147.67 122.22 157.23 118.26 C 159.20 117.62 160.39 115.80 160.99 113.91 C 163.25 107.36 163.87 100.29 166.93 94.01 C 169.93 87.98 174.41 82.84 179.13 78.09 C 185.35 71.84 193.87 68.78 202.05 66.02 M 210.10 83.95 C 208.13 84.60 206.01 86.54 207.23 88.77 C 210.57 93.81 216.99 95.13 221.24 99.10 C 221.38 100.71 219.56 100.99 218.47 101.53 C 216.00 102.63 212.98 103.09 211.25 105.36 C 210.16 107.44 212.36 109.15 213.80 110.28 C 220.26 114.73 228.56 115.12 236.12 114.49 C 237.84 114.20 240.20 114.56 241.01 112.59 C 233.88 112.86 226.71 111.16 220.44 107.75 C 222.64 104.96 227.21 103.85 227.75 99.98 C 226.34 94.88 220.54 93.50 217.23 89.96 C 220.61 89.86 224.41 90.49 226.98 87.75 C 225.87 86.56 224.90 85.07 223.24 84.63 C 219.06 83.25 214.36 82.43 210.10 83.95 M 190.60 116.01 C 190.80 116.38 191.19 117.13 191.39 117.51 C 203.06 118.74 213.99 123.32 225.36 125.94 C 224.27 123.47 221.19 123.53 219.01 122.67 C 209.59 120.30 200.39 116.49 190.60 116.01 M 250.26 130.14 C 250.23 130.53 250.15 131.31 250.11 131.70 C 254.50 132.30 258.81 133.41 263.21 133.97 C 263.00 133.60 262.59 132.86 262.38 132.49 C 258.43 131.31 254.31 130.85 250.26 130.14 Z" />
<path fill="#845c67" opacity="1.00" d=" M 210.10 83.95 C 214.36 82.43 219.06 83.25 223.24 84.63 C 224.90 85.07 225.87 86.56 226.98 87.75 C 224.41 90.49 220.61 89.86 217.23 89.96 C 220.54 93.50 226.34 94.88 227.75 99.98 C 227.21 103.85 222.64 104.96 220.44 107.75 C 226.71 111.16 233.88 112.86 241.01 112.59 C 240.20 114.56 237.84 114.20 236.12 114.49 C 228.56 115.12 220.26 114.73 213.80 110.28 C 212.36 109.15 210.16 107.44 211.25 105.36 C 212.98 103.09 216.00 102.63 218.47 101.53 C 219.56 100.99 221.38 100.71 221.24 99.10 C 216.99 95.13 210.57 93.81 207.23 88.77 C 206.01 86.54 208.13 84.60 210.10 83.95 M 207.63 87.09 C 211.07 93.45 219.65 93.93 223.36 99.96 C 220.44 103.04 215.89 103.26 212.62 105.72 C 211.30 106.58 212.96 107.76 213.57 108.43 C 218.76 112.53 225.74 113.59 232.19 113.41 C 227.58 111.65 222.21 111.39 218.60 107.60 C 220.70 104.50 225.25 103.71 226.48 100.04 C 224.16 94.19 216.38 93.59 213.57 88.14 C 217.47 89.35 221.61 89.03 225.48 87.88 C 223.91 85.89 221.35 85.29 218.98 84.88 C 215.11 84.24 210.66 84.20 207.63 87.09 Z" />
<path fill="#ffffff" opacity="1.00" d=" M 207.63 87.09 C 210.66 84.20 215.11 84.24 218.98 84.88 C 221.35 85.29 223.91 85.89 225.48 87.88 C 221.61 89.03 217.47 89.35 213.57 88.14 C 216.38 93.59 224.16 94.19 226.48 100.04 C 225.25 103.71 220.70 104.50 218.60 107.60 C 222.21 111.39 227.58 111.65 232.19 113.41 C 225.74 113.59 218.76 112.53 213.57 108.43 C 212.96 107.76 211.30 106.58 212.62 105.72 C 215.89 103.26 220.44 103.04 223.36 99.96 C 219.65 93.93 211.07 93.45 207.63 87.09 Z" />
<path fill="#73a475" opacity="1.00" d=" M 312.65 94.80 C 317.13 98.50 319.49 104.00 322.23 108.98 C 324.58 113.41 328.49 116.77 330.71 121.28 C 332.92 125.76 334.43 130.79 333.73 135.83 C 331.02 136.26 329.20 133.61 328.46 131.35 C 326.92 127.34 323.71 123.88 319.55 122.58 C 315.66 121.72 311.63 122.35 307.83 123.32 C 311.50 119.66 316.31 117.41 319.91 113.69 C 319.12 106.89 314.54 101.29 312.65 94.80 Z" />
<path fill="#7a7f6d" opacity="1.00" d=" M 190.60 116.01 C 200.39 116.49 209.59 120.30 219.01 122.67 C 221.19 123.53 224.27 123.47 225.36 125.94 C 213.99 123.32 203.06 118.74 191.39 117.51 C 191.19 117.13 190.80 116.38 190.60 116.01 Z" />
<path fill="#f67883" opacity="1.00" d=" M 304.19 128.98 C 306.79 125.07 311.31 122.64 316.05 123.17 C 322.15 123.10 326.35 128.41 328.55 133.52 C 323.24 131.50 317.57 130.55 311.91 131.45 C 309.03 132.16 306.55 130.30 304.19 128.98 Z" />
<path fill="#7c836f" opacity="1.00" d=" M 250.26 130.14 C 254.31 130.85 258.43 131.31 262.38 132.49 C 262.59 132.86 263.00 133.60 263.21 133.97 C 258.81 133.41 254.50 132.30 250.11 131.70 C 250.15 131.31 250.23 130.53 250.26 130.14 Z" />
<path fill="#f67883" opacity="1.00" d=" M 300.23 131.39 C 304.34 129.75 309.25 131.94 311.21 135.81 C 313.25 139.79 315.00 144.45 314.00 148.96 C 310.35 155.80 299.21 156.84 294.72 150.24 C 289.37 144.38 291.40 132.29 300.23 131.39 Z" />
<path fill="#b4e6ff" opacity="1.00" d=" M 310.53 132.62 C 317.70 131.56 325.26 132.59 331.38 136.63 C 340.54 142.81 347.16 152.13 351.90 161.98 C 356.08 172.51 361.53 183.37 371.27 189.81 C 377.57 194.73 385.43 196.72 392.54 200.10 C 382.45 201.29 372.58 198.50 362.98 195.76 C 364.81 200.40 367.27 204.91 367.91 209.92 C 368.49 214.56 368.35 219.29 367.66 223.91 C 366.69 230.65 361.92 235.98 357.01 240.32 C 360.86 230.65 360.93 220.16 360.81 209.91 C 360.65 209.07 360.29 208.31 359.71 207.64 C 359.47 210.97 359.41 214.49 357.47 217.36 C 353.58 223.58 348.75 229.53 342.22 233.10 C 335.61 236.78 328.40 239.26 321.07 241.08 C 320.20 241.03 319.32 241.00 318.46 240.97 C 321.49 228.45 321.74 215.45 320.70 202.66 C 322.44 193.89 320.69 184.90 318.62 176.34 C 316.51 168.48 315.50 160.36 312.88 152.64 C 314.21 151.05 315.54 149.22 315.48 147.04 C 315.51 141.84 313.48 136.84 310.53 132.62 Z" />
<path fill="#72a574" opacity="1.00" d=" M 248.56 151.93 C 263.51 148.05 278.33 143.29 291.78 135.53 C 291.59 136.67 291.39 137.81 291.19 138.95 C 286.00 141.97 281.15 145.69 275.36 147.54 C 266.76 150.38 257.66 152.62 248.56 151.93 Z" />
<path fill="#73a475" opacity="1.00" d=" M 115.29 149.89 C 127.92 141.37 142.98 136.63 158.24 136.68 C 151.46 147.40 145.86 158.91 141.89 170.95 L 141.46 170.72 C 140.97 170.52 139.97 170.12 139.47 169.92 C 130.90 166.92 122.25 163.50 115.05 157.83 C 110.96 154.54 113.35 148.60 116.15 145.26 L 116.52 145.19 C 118.48 144.86 120.44 144.50 122.38 144.04 C 120.15 145.74 117.74 147.18 115.29 148.53 C 115.29 148.87 115.29 149.55 115.29 149.89 Z" />
<path fill="#86c1e1" opacity="1.00" d=" M 151.99 150.04 C 154.31 145.38 156.82 140.81 159.89 136.60 C 179.35 136.76 198.58 140.92 217.00 147.01 C 218.54 147.52 220.01 148.20 221.47 148.92 C 217.65 148.85 213.81 148.80 210.01 148.30 C 190.74 145.98 171.01 145.71 151.99 150.04 Z" />
<path fill="#86caee" opacity="1.00" d=" M 278.47 147.83 C 282.70 145.67 286.77 143.19 290.65 140.44 C 290.70 142.18 290.75 143.93 290.90 145.67 C 286.83 146.77 282.68 147.57 278.47 147.83 Z" />
<path fill="#b4e6ff" opacity="1.00" d=" M 278.47 147.83 C 282.68 147.57 286.83 146.77 290.90 145.67 C 292.86 152.20 299.25 157.21 306.26 155.79 C 306.56 156.48 307.16 157.84 307.46 158.52 C 314.45 177.62 319.86 197.62 319.89 218.10 C 319.64 228.06 318.13 238.02 315.09 247.52 C 314.66 247.13 313.80 246.36 313.37 245.97 C 313.45 245.56 313.61 244.74 313.69 244.34 C 314.03 244.57 314.70 245.05 315.04 245.29 C 316.26 236.54 316.22 227.65 314.88 218.92 C 314.85 217.45 313.96 216.28 313.02 215.26 C 313.32 221.47 315.00 227.81 313.08 233.94 C 310.14 246.02 300.55 255.45 289.32 260.21 C 288.79 260.49 287.72 261.05 287.19 261.33 C 280.85 264.04 273.90 264.36 267.32 266.15 C 269.47 263.52 271.72 260.90 273.21 257.82 C 273.80 256.59 274.32 255.33 274.81 254.06 C 276.74 249.69 277.17 244.89 278.33 240.30 C 279.77 236.81 281.99 233.60 282.63 229.81 C 281.35 230.96 280.64 232.53 280.01 234.09 C 279.17 233.48 278.33 232.89 277.49 232.32 C 279.68 223.80 280.46 214.94 280.35 206.16 C 280.54 194.05 279.15 182.00 277.92 169.98 C 277.44 166.96 277.63 163.33 274.83 161.38 C 275.32 165.74 276.14 170.06 276.50 174.44 C 275.18 183.02 276.17 191.76 274.76 200.34 C 270.54 198.58 266.74 195.73 262.13 195.03 C 258.36 191.55 254.95 187.70 251.71 183.72 C 259.57 182.20 268.09 179.74 273.52 173.49 C 266.70 178.00 259.28 181.94 251.01 182.80 C 244.93 174.03 238.43 164.42 238.30 153.36 C 251.89 153.99 265.68 152.71 278.47 147.83 M 289.34 170.42 C 284.33 170.37 286.49 177.31 289.99 177.70 C 294.04 177.55 292.83 170.58 289.34 170.42 M 296.76 171.02 C 296.16 172.73 298.72 172.28 299.63 172.92 C 299.96 172.45 300.64 171.51 300.98 171.04 C 299.87 170.22 296.70 168.29 296.76 171.02 Z" />
<path fill="#b4e6ff" opacity="1.00" d=" M 151.99 150.04 C 171.01 145.71 190.74 145.98 210.01 148.30 C 213.81 148.80 217.65 148.85 221.47 148.92 C 226.77 150.30 231.75 152.83 237.28 153.35 C 238.42 169.06 241.30 184.66 241.30 200.45 C 239.61 200.09 237.74 199.98 236.43 198.70 C 232.79 195.47 229.91 191.39 227.81 187.00 C 226.79 184.99 226.49 182.55 224.80 180.94 C 224.12 187.24 225.38 193.55 225.49 199.78 C 222.04 201.85 218.04 203.06 213.99 202.83 C 210.82 202.63 208.48 206.06 205.41 205.75 C 203.48 204.00 202.71 201.38 201.73 199.06 C 196.49 184.25 194.59 167.87 198.79 152.56 C 196.37 154.13 196.90 157.57 196.27 160.03 C 194.83 166.61 196.44 173.56 194.11 179.97 C 193.30 182.47 192.26 184.89 191.15 187.28 C 185.87 187.35 180.59 187.52 175.32 187.19 C 175.34 177.33 179.06 168.01 180.18 158.30 C 180.40 157.10 180.68 155.91 180.91 154.72 C 177.71 158.94 175.83 164.00 174.33 169.03 C 170.43 184.35 168.69 200.23 169.46 216.03 C 169.88 222.58 171.93 228.87 174.51 234.86 C 169.38 230.02 166.38 223.08 165.52 216.14 C 165.23 216.16 164.66 216.22 164.37 216.24 C 166.94 225.75 167.89 235.79 172.67 244.58 C 161.44 244.71 148.84 240.07 143.59 229.45 C 141.42 226.06 141.69 221.93 140.47 218.22 C 137.65 222.06 136.08 226.57 134.69 231.07 C 134.24 232.12 133.79 233.16 133.33 234.19 C 132.30 220.05 132.75 205.68 136.31 191.89 C 137.81 185.48 140.34 179.40 142.30 173.13 C 144.93 165.20 148.31 157.53 151.99 150.04 M 151.29 171.45 C 148.61 172.47 145.68 173.77 144.51 176.59 C 142.31 181.00 140.41 186.53 142.74 191.24 C 144.13 194.01 148.25 194.88 150.35 192.44 C 154.07 188.60 155.60 183.14 156.32 177.97 C 156.73 175.12 154.83 170.39 151.29 171.45 M 211.26 172.42 C 208.50 173.12 205.26 174.72 205.21 178.00 C 204.34 181.61 206.06 187.48 210.72 186.70 C 214.14 184.95 214.98 180.51 214.64 177.01 C 214.36 175.15 213.38 172.65 211.26 172.42 M 219.30 178.35 C 217.89 179.72 220.32 181.75 221.58 180.42 C 223.15 179.04 220.58 176.91 219.30 178.35 M 163.20 179.00 C 162.34 180.42 160.69 181.85 161.33 183.68 C 161.97 186.18 165.46 184.91 165.99 182.96 C 167.42 180.88 164.67 179.71 163.20 179.00 Z" />
<path fill="#86c1e1" opacity="1.00" d=" M 307.59 155.30 C 309.36 154.44 311.15 153.59 312.88 152.64 C 315.50 160.36 316.51 168.48 318.62 176.34 C 320.69 184.90 322.44 193.89 320.70 202.66 C 317.86 186.88 314.41 171.04 307.77 156.37 C 307.73 156.10 307.64 155.57 307.59 155.30 Z" />
<path fill="#6e778a" opacity="1.00" d=" M 307.77 156.37 C 314.41 171.04 317.86 186.88 320.70 202.66 C 321.74 215.45 321.49 228.45 318.46 240.97 C 317.15 246.27 315.25 251.56 311.74 255.83 C 312.11 252.51 312.68 249.23 313.37 245.97 C 313.80 246.36 314.66 247.13 315.09 247.52 C 318.13 238.02 319.64 228.06 319.89 218.10 C 319.86 197.62 314.45 177.62 307.46 158.52 C 307.54 157.98 307.70 156.91 307.77 156.37 Z" />
<path fill="#82c0e2" opacity="1.00" d=" M 171.57 186.28 C 173.92 176.87 174.19 166.33 180.18 158.30 C 179.06 168.01 175.34 177.33 175.32 187.19 C 174.07 186.86 172.82 186.56 171.57 186.28 Z" />
<path fill="#5a758e" opacity="1.00" d=" M 274.83 161.38 C 277.63 163.33 277.44 166.96 277.92 169.98 C 279.15 182.00 280.54 194.05 280.35 206.16 C 279.76 205.97 278.59 205.58 278.01 205.39 L 278.53 205.01 C 278.65 204.52 278.88 203.56 278.99 203.07 C 278.44 193.51 277.99 183.91 276.50 174.44 C 276.14 170.06 275.32 165.74 274.83 161.38 Z" />
<path fill="#b4e6ff" opacity="1.00" d=" M 126.97 166.55 C 129.64 167.31 132.13 168.55 134.70 169.58 C 132.04 180.17 131.09 191.28 132.33 202.15 C 131.80 210.45 130.31 218.76 131.31 227.09 C 132.07 233.84 132.46 240.73 134.53 247.25 L 135.02 248.01 C 136.24 249.43 136.02 251.42 136.36 253.15 C 136.85 257.20 138.23 261.09 139.98 264.76 C 129.66 264.62 121.04 257.30 115.95 248.85 C 112.10 240.55 112.86 230.84 115.48 222.29 C 116.49 218.69 119.02 215.70 119.71 211.99 C 114.95 218.22 108.07 222.49 100.56 224.64 C 106.34 220.10 111.48 214.75 115.71 208.74 C 118.86 204.17 120.50 198.60 120.31 193.06 C 119.91 183.80 123.25 174.86 126.97 166.55 Z" />
<path fill="#e3b3a7" opacity="1.00" d=" M 239.63 166.55 C 242.70 171.88 245.53 177.37 249.29 182.28 C 248.41 182.68 247.54 183.09 246.68 183.50 C 247.52 183.49 249.19 183.48 250.03 183.47 C 253.26 187.68 256.99 191.49 260.45 195.51 C 252.97 193.69 249.11 186.15 243.42 181.58 C 243.19 188.51 242.42 195.41 242.67 202.35 L 242.52 202.41 C 240.97 202.02 239.44 201.63 237.94 201.11 C 239.41 201.21 240.88 201.27 242.36 201.30 C 242.29 189.67 241.09 178.08 239.63 166.55 Z" />
<path fill="#86c1e1" opacity="1.00" d=" M 134.70 169.58 C 136.29 169.67 137.88 169.78 139.47 169.92 C 139.97 170.12 140.97 170.52 141.46 170.72 C 137.78 181.00 134.16 191.35 132.33 202.15 C 131.09 191.28 132.04 180.17 134.70 169.58 Z" />
<path fill="#eafdfe" opacity="1.00" d=" M 289.34 170.42 C 292.83 170.58 294.04 177.55 289.99 177.70 C 286.49 177.31 284.33 170.37 289.34 170.42 Z" />
<path fill="#e8fbfe" opacity="1.00" d=" M 296.76 171.02 C 296.70 168.29 299.87 170.22 300.98 171.04 C 300.64 171.51 299.96 172.45 299.63 172.92 C 298.72 172.28 296.16 172.73 296.76 171.02 Z" />
<path fill="#647f97" opacity="1.00" d=" M 141.46 170.72 L 141.89 170.95 C 141.99 171.50 142.20 172.59 142.30 173.13 C 140.34 179.40 137.81 185.48 136.31 191.89 C 132.75 205.68 132.30 220.05 133.33 234.19 C 133.79 233.16 134.24 232.12 134.69 231.07 L 135.35 232.27 C 134.95 236.52 134.85 240.80 135.13 245.06 C 135.56 245.28 136.43 245.72 136.87 245.94 C 136.25 246.63 135.63 247.32 135.02 248.01 L 134.53 247.25 C 132.46 240.73 132.07 233.84 131.31 227.09 C 130.31 218.76 131.80 210.45 132.33 202.15 C 134.16 191.35 137.78 181.00 141.46 170.72 Z" />
<path fill="#e9fdfe" opacity="1.00" d=" M 151.29 171.45 C 154.83 170.39 156.73 175.12 156.32 177.97 C 155.60 183.14 154.07 188.60 150.35 192.44 C 148.25 194.88 144.13 194.01 142.74 191.24 C 140.41 186.53 142.31 181.00 144.51 176.59 C 145.68 173.77 148.61 172.47 151.29 171.45 Z" />
<path fill="#e9fdfe" opacity="1.00" d=" M 211.26 172.42 C 213.38 172.65 214.36 175.15 214.64 177.01 C 214.98 180.51 214.14 184.95 210.72 186.70 C 206.06 187.48 204.34 181.61 205.21 178.00 C 205.26 174.72 208.50 173.12 211.26 172.42 Z" />
<path fill="#89c7e7" opacity="1.00" d=" M 276.50 174.44 C 277.99 183.91 278.44 193.51 278.99 203.07 C 278.88 203.56 278.65 204.52 278.53 205.01 L 278.01 205.39 C 271.73 203.76 266.85 199.22 262.13 195.03 C 266.74 195.73 270.54 198.58 274.76 200.34 C 276.17 191.76 275.18 183.02 276.50 174.44 Z" />
<path fill="#e7fafd" opacity="1.00" d=" M 219.30 178.35 C 220.58 176.91 223.15 179.04 221.58 180.42 C 220.32 181.75 217.89 179.72 219.30 178.35 Z" />
<path fill="#ecfefe" opacity="1.00" d=" M 163.20 179.00 C 164.67 179.71 167.42 180.88 165.99 182.96 C 165.46 184.91 161.97 186.18 161.33 183.68 C 160.69 181.85 162.34 180.42 163.20 179.00 Z" />
<path fill="#e3b3a7" opacity="1.00" d=" M 192.74 186.41 C 193.79 183.88 194.84 181.35 195.93 178.85 C 196.52 185.56 198.37 192.05 199.94 198.57 C 198.55 196.66 197.13 194.78 195.77 192.85 C 193.15 195.75 190.55 198.66 188.09 201.68 C 186.05 202.29 184.08 203.10 182.09 203.85 C 185.89 198.82 189.43 193.58 192.16 187.89 C 193.60 187.68 195.04 187.46 196.48 187.24 C 195.24 186.95 193.98 186.67 192.74 186.41 Z" />
<path fill="#ffefe0" opacity="1.00" d=" M 243.42 181.58 C 249.11 186.15 252.97 193.69 260.45 195.51 C 260.94 196.16 261.42 196.83 261.89 197.51 C 263.67 198.62 265.46 199.71 267.22 200.87 C 259.09 199.05 250.32 198.42 242.67 202.35 C 242.42 195.41 243.19 188.51 243.42 181.58 Z" />
<path fill="#ffefe0" opacity="1.00" d=" M 226.03 186.47 C 229.12 191.91 232.29 197.96 237.94 201.11 C 239.44 201.63 240.97 202.02 242.52 202.41 C 241.51 202.91 240.52 203.43 239.53 203.95 C 239.74 204.19 240.17 204.65 240.39 204.89 C 241.02 207.72 241.44 210.59 242.14 213.41 C 243.61 222.18 251.27 229.94 260.53 229.47 C 264.20 229.62 268.53 229.69 271.15 226.63 L 271.88 225.89 L 272.15 227.39 C 273.90 225.21 275.40 222.86 276.74 220.42 C 277.11 220.84 277.85 221.68 278.22 222.11 C 277.80 225.40 277.08 228.64 276.30 231.86 C 269.29 230.74 260.72 230.40 255.49 236.07 C 256.93 237.08 258.26 238.51 260.12 238.69 C 264.97 239.26 269.91 238.76 274.71 237.94 C 273.86 240.02 273.15 242.15 272.16 244.17 C 270.57 247.49 267.33 249.50 265.07 252.30 C 270.21 250.52 273.14 245.64 276.93 242.09 C 276.01 245.47 275.52 249.19 273.32 252.06 C 266.14 261.57 255.37 267.91 243.95 270.93 C 237.74 272.48 231.51 274.67 225.03 274.28 C 217.10 273.87 209.00 273.38 201.55 270.42 C 193.60 267.33 185.64 263.54 179.62 257.36 C 177.21 255.01 176.33 251.68 175.25 248.61 C 182.81 248.85 191.53 248.96 197.18 243.03 C 190.59 238.33 181.60 240.05 174.60 242.94 C 174.53 241.14 174.46 239.35 174.39 237.55 C 175.59 238.56 176.81 239.56 178.04 240.54 C 174.59 232.72 171.33 224.61 170.63 216.01 C 174.07 212.06 178.31 208.89 181.68 204.86 C 186.93 202.02 192.89 202.42 198.58 201.35 C 195.08 201.33 191.58 201.46 188.09 201.68 C 190.55 198.66 193.15 195.75 195.77 192.85 C 197.13 194.78 198.55 196.66 199.94 198.57 C 201.51 201.43 202.41 204.87 205.00 207.03 C 208.66 207.24 211.39 203.97 215.06 204.18 C 219.36 204.14 223.41 202.50 226.98 200.20 C 226.54 195.63 226.27 191.05 226.03 186.47 M 174.60 213.59 C 173.32 215.07 171.41 216.83 172.73 219.02 L 173.92 217.63 C 174.69 219.73 175.40 221.85 176.05 223.99 C 181.24 234.14 193.17 238.93 204.15 237.47 L 202.90 236.77 C 205.12 235.68 207.97 234.73 208.63 232.01 C 210.49 225.77 209.46 218.88 207.10 212.91 C 205.58 208.63 201.12 206.60 196.98 205.71 C 188.79 203.94 180.13 207.52 174.60 213.59 M 237.78 256.26 C 235.82 257.41 233.57 256.35 231.48 256.44 C 229.95 257.19 228.55 258.18 227.02 258.93 C 224.62 258.93 223.05 256.79 221.05 255.78 C 222.20 257.56 223.51 260.08 226.02 259.84 C 229.03 260.46 230.91 256.79 233.97 257.71 C 237.83 258.72 241.58 255.77 241.96 251.90 C 240.53 253.31 239.45 255.11 237.78 256.26 Z" />
<path fill="#82bfdf" opacity="1.00" d=" M 171.66 187.16 C 172.45 187.36 174.03 187.76 174.82 187.96 C 174.13 194.54 173.48 201.14 173.84 207.77 C 175.03 207.65 176.23 207.53 177.43 207.42 C 175.27 209.93 172.87 212.23 170.29 214.31 C 170.16 205.24 170.29 196.14 171.66 187.16 Z" />
<path fill="#b4e6ff" opacity="1.00" d=" M 174.82 187.96 C 180.07 188.73 185.41 188.63 190.68 188.12 C 187.46 195.29 182.56 201.53 177.43 207.42 C 176.23 207.53 175.03 207.65 173.84 207.77 C 173.48 201.14 174.13 194.54 174.82 187.96 Z" />
<path fill="#d0d2d1" opacity="1.00" d=" M 240.39 204.89 C 245.14 202.55 250.31 201.01 255.66 201.25 C 253.50 204.04 251.96 207.27 251.44 210.79 C 248.33 211.63 245.23 212.50 242.14 213.41 C 241.44 210.59 241.02 207.72 240.39 204.89 Z" />
<path fill="#5a8fae" opacity="1.00" d=" M 252.68 216.47 C 252.59 211.34 252.65 204.27 258.01 201.72 C 262.37 201.52 266.72 203.17 270.10 205.91 C 268.94 206.45 267.86 207.11 266.84 207.88 C 265.12 210.05 267.09 213.84 269.83 213.77 C 270.82 213.23 271.79 212.64 272.73 212.00 C 272.98 213.73 273.14 215.46 273.25 217.20 C 266.47 215.90 259.53 215.61 252.68 216.47 Z" />
<path fill="#543233" opacity="1.00" d=" M 174.60 213.59 C 180.13 207.52 188.79 203.94 196.98 205.71 C 201.12 206.60 205.58 208.63 207.10 212.91 C 209.46 218.88 210.49 225.77 208.63 232.01 C 207.97 234.73 205.12 235.68 202.90 236.77 C 200.97 235.88 198.60 235.65 197.18 233.93 C 194.64 230.88 193.43 226.97 192.88 223.09 C 192.54 217.39 192.47 210.51 197.90 207.04 C 188.74 205.89 179.04 209.83 173.92 217.63 L 172.73 219.02 C 171.41 216.83 173.32 215.07 174.60 213.59 M 196.21 210.20 C 193.15 214.71 193.68 220.67 194.49 225.81 C 195.21 228.14 196.39 230.29 197.63 232.37 C 198.58 233.57 199.75 234.58 200.86 235.64 C 204.52 235.77 207.55 233.39 207.84 229.65 L 208.10 229.73 C 208.20 227.38 208.28 225.03 208.35 222.68 C 207.99 221.12 207.61 219.56 207.18 218.02 C 207.73 215.52 205.89 213.59 204.77 211.58 C 202.67 209.15 198.74 207.30 196.21 210.20 Z" />
<path fill="#fffffe" opacity="1.00" d=" M 274.99 205.88 C 276.37 206.29 277.74 206.71 279.12 207.15 C 279.15 207.95 279.20 209.56 279.23 210.36 C 277.80 208.88 276.38 207.40 274.99 205.88 Z" />
<path fill="#d0d2d1" opacity="1.00" d=" M 173.92 217.63 C 179.04 209.83 188.74 205.89 197.90 207.04 C 192.47 210.51 192.54 217.39 192.88 223.09 C 192.60 221.43 192.34 219.76 192.08 218.10 C 186.41 219.07 180.96 221.00 176.05 223.99 C 175.40 221.85 174.69 219.73 173.92 217.63 Z" />
<path fill="#fffffe" opacity="1.00" d=" M 266.84 207.88 C 267.86 207.11 268.94 206.45 270.10 205.91 C 271.38 207.74 272.29 209.80 272.73 212.00 C 271.79 212.64 270.82 213.23 269.83 213.77 C 267.09 213.84 265.12 210.05 266.84 207.88 Z" />
<path fill="#deddd9" opacity="1.00" d=" M 271.95 205.25 C 274.32 207.57 276.43 210.22 279.24 212.06 C 279.10 213.62 278.94 215.18 278.79 216.75 C 277.41 215.88 275.92 215.22 274.44 214.56 C 274.09 211.34 273.01 208.28 271.95 205.25 Z" />
<path fill="#ffdabd" opacity="1.00" d=" M 51.67 207.67 C 72.57 207.72 93.49 207.30 114.38 207.88 C 108.82 215.67 102.03 223.28 92.60 226.24 C 100.90 227.04 108.97 223.29 115.41 218.30 C 112.09 226.03 110.19 234.73 112.34 243.05 C 113.62 250.08 118.45 255.76 123.58 260.43 C 129.18 264.38 136.16 267.65 143.16 266.00 C 139.22 261.66 138.30 255.72 137.19 250.19 C 140.90 254.22 145.34 257.46 150.38 259.62 L 150.33 260.53 C 149.32 269.26 148.74 278.58 152.44 286.80 C 153.10 282.21 154.02 277.62 156.08 273.42 C 160.35 278.97 166.45 282.71 172.99 285.03 C 168.46 289.12 162.98 293.52 162.38 300.06 C 161.81 303.22 162.85 306.29 163.93 309.21 C 161.42 310.92 158.89 312.61 156.45 314.42 C 144.18 323.81 130.92 331.78 117.71 339.74 C 109.22 345.12 99.87 348.89 90.89 353.30 C 81.89 354.50 73.08 357.56 65.51 362.62 C 61.47 366.50 56.55 369.19 51.88 372.19 C 51.73 369.48 51.61 366.76 51.60 364.05 C 51.66 311.92 51.54 259.79 51.67 207.67 Z" />
<path fill="#ffdabd" opacity="1.00" d=" M 369.24 207.94 C 375.48 207.43 381.75 207.62 388.01 207.62 C 406.25 207.77 424.51 207.29 442.74 207.85 C 442.56 254.97 442.60 302.08 442.69 349.20 C 438.90 349.32 435.11 348.91 431.41 348.15 C 430.45 346.96 429.61 345.55 428.14 344.95 C 420.93 341.46 412.86 340.53 405.00 339.61 C 397.47 339.03 389.74 339.60 382.40 337.46 C 372.23 333.61 363.61 326.79 353.89 322.05 C 345.91 318.09 338.39 313.20 330.06 309.95 C 321.15 306.52 312.51 302.45 303.67 298.85 C 303.16 289.07 296.32 280.49 287.74 276.24 C 287.84 275.91 288.05 275.24 288.15 274.91 C 303.26 273.75 315.91 262.03 321.85 248.60 C 323.90 254.57 324.72 260.83 325.22 267.09 C 333.25 260.11 335.10 248.69 334.76 238.58 C 338.58 236.90 342.55 235.41 345.89 232.85 C 351.64 228.44 355.95 222.51 359.88 216.49 C 359.81 225.48 358.61 234.60 354.59 242.74 C 359.10 241.92 361.88 237.80 364.62 234.50 C 370.64 227.09 370.23 216.88 369.24 207.94 Z" />
<path fill="#5a8fae" opacity="1.00" d=" M 196.21 210.20 C 198.74 207.30 202.67 209.15 204.77 211.58 C 202.82 212.51 200.73 214.48 202.19 216.79 C 202.88 219.23 205.38 219.01 207.18 218.02 C 207.61 219.56 207.99 221.12 208.35 222.68 C 203.81 222.93 199.24 223.19 194.77 224.07 C 194.70 224.51 194.56 225.38 194.49 225.81 C 193.68 220.67 193.15 214.71 196.21 210.20 Z" />
<path fill="#fefefe" opacity="1.00" d=" M 242.14 213.41 C 245.23 212.50 248.33 211.63 251.44 210.79 C 250.54 217.48 253.27 224.55 258.95 228.36 C 259.34 228.64 260.14 229.20 260.53 229.47 C 251.27 229.94 243.61 222.18 242.14 213.41 Z" />
<path fill="#ffffff" opacity="1.00" d=" M 202.19 216.79 C 200.73 214.48 202.82 212.51 204.77 211.58 C 205.89 213.59 207.73 215.52 207.18 218.02 C 205.38 219.01 202.88 219.23 202.19 216.79 Z" />
<path fill="#fbf9f7" opacity="1.00" d=" M 274.44 214.56 C 275.92 215.22 277.41 215.88 278.79 216.75 C 278.62 218.53 278.42 220.32 278.22 222.11 C 277.85 221.68 277.11 220.84 276.74 220.42 C 275.40 222.86 273.90 225.21 272.15 227.39 L 271.88 225.89 C 273.75 222.42 274.45 218.47 274.44 214.56 Z" />
<path fill="#b4e6ff" opacity="1.00" d=" M 252.68 216.47 C 259.53 215.61 266.47 215.90 273.25 217.20 C 272.76 219.98 271.82 222.64 271.19 225.39 L 270.97 225.00 C 270.08 223.59 269.15 222.20 268.23 220.82 C 265.65 221.37 263.00 221.40 260.46 220.67 C 259.31 222.32 258.65 224.22 258.19 226.18 C 255.40 223.59 253.50 220.17 252.68 216.47 Z" />
<path fill="#5d85a2" opacity="1.00" d=" M 313.02 215.26 C 313.96 216.28 314.85 217.45 314.88 218.92 C 316.22 227.65 316.26 236.54 315.04 245.29 C 314.70 245.05 314.03 244.57 313.69 244.34 C 313.87 241.97 313.97 239.60 314.04 237.23 C 311.90 241.52 309.85 245.93 306.64 249.54 C 302.45 254.56 296.86 258.11 291.22 261.27 C 291.01 261.58 290.60 262.19 290.40 262.50 L 288.96 263.54 L 289.70 262.33 C 290.38 261.46 290.26 260.75 289.32 260.21 C 300.55 255.45 310.14 246.02 313.08 233.94 C 315.00 227.81 313.32 221.47 313.02 215.26 Z" />
<path fill="#fefefe" opacity="1.00" d=" M 176.05 223.99 C 180.96 221.00 186.41 219.07 192.08 218.10 C 192.34 219.76 192.60 221.43 192.88 223.09 C 193.43 226.97 194.64 230.88 197.18 233.93 C 198.60 235.65 200.97 235.88 202.90 236.77 L 204.15 237.47 C 193.17 238.93 181.24 234.14 176.05 223.99 Z" />
<path fill="#e9fdfe" opacity="1.00" d=" M 258.19 226.18 C 258.65 224.22 259.31 222.32 260.46 220.67 C 263.00 221.40 265.65 221.37 268.23 220.82 C 269.15 222.20 270.08 223.59 270.97 225.00 C 268.13 227.81 264.21 228.43 260.40 227.75 C 259.85 227.35 258.74 226.57 258.19 226.18 Z" />
<path fill="#b4e6ff" opacity="1.00" d=" M 135.35 232.27 C 136.34 228.23 137.61 224.14 140.14 220.77 C 140.69 229.10 145.88 236.76 153.13 240.77 C 155.48 241.83 155.02 244.89 155.73 246.96 C 154.00 250.36 152.56 253.93 151.92 257.71 C 145.44 256.75 139.71 251.77 136.87 245.94 C 136.43 245.72 135.56 245.28 135.13 245.06 C 134.85 240.80 134.95 236.52 135.35 232.27 Z" />
<path fill="#b4e6ff" opacity="1.00" d=" M 194.77 224.07 C 199.24 223.19 203.81 222.93 208.35 222.68 C 208.28 225.03 208.20 227.38 208.10 229.73 L 207.84 229.65 C 204.88 228.14 201.63 228.70 198.55 229.44 C 198.32 230.17 197.86 231.64 197.63 232.37 C 196.39 230.29 195.21 228.14 194.49 225.81 C 194.56 225.38 194.70 224.51 194.77 224.07 Z" />
<path fill="#5d85a2" opacity="1.00" d=" M 270.97 225.00 L 271.19 225.39 L 271.15 226.63 C 268.53 229.69 264.20 229.62 260.53 229.47 C 260.14 229.20 259.34 228.64 258.95 228.36 C 259.31 228.21 260.04 227.90 260.40 227.75 C 264.21 228.43 268.13 227.81 270.97 225.00 Z" />
<path fill="#e9fdfe" opacity="1.00" d=" M 198.55 229.44 C 201.63 228.70 204.88 228.14 207.84 229.65 C 207.55 233.39 204.52 235.77 200.86 235.64 C 199.75 234.58 198.58 233.57 197.63 232.37 C 197.86 231.64 198.32 230.17 198.55 229.44 Z" />
<path fill="#86caee" opacity="1.00" d=" M 168.05 227.96 C 169.58 230.14 171.32 232.24 172.34 234.72 C 172.93 237.23 172.71 239.84 172.60 242.40 C 170.30 237.90 168.77 232.96 168.05 227.96 Z" />
<path fill="#f0a7ae" opacity="1.00" d=" M 255.49 236.07 C 260.72 230.40 269.29 230.74 276.30 231.86 C 276.60 231.97 277.19 232.21 277.49 232.32 C 278.33 232.89 279.17 233.48 280.01 234.09 C 279.60 235.01 279.20 235.94 278.76 236.86 C 278.05 237.05 276.62 237.43 275.91 237.62 C 275.61 237.70 275.01 237.86 274.71 237.94 C 269.91 238.76 264.97 239.26 260.12 238.69 C 258.26 238.51 256.93 237.08 255.49 236.07 Z" />
<path fill="#b3dde6" opacity="1.00" d=" M 275.91 237.62 C 276.62 237.43 278.05 237.05 278.76 236.86 C 277.48 239.24 275.85 241.41 274.11 243.47 C 274.65 241.50 275.27 239.56 275.91 237.62 Z" />
<path fill="#86c1e1" opacity="1.00" d=" M 306.64 249.54 C 309.85 245.93 311.90 241.52 314.04 237.23 C 313.97 239.60 313.87 241.97 313.69 244.34 C 313.61 244.74 313.45 245.56 313.37 245.97 C 312.68 249.23 312.11 252.51 311.74 255.83 C 315.25 251.56 317.15 246.27 318.46 240.97 C 319.32 241.00 320.20 241.03 321.07 241.08 C 325.36 242.24 329.37 239.60 333.37 238.45 C 333.48 247.25 332.10 256.51 326.80 263.79 C 325.97 257.14 324.14 250.67 321.79 244.40 C 319.96 248.07 318.94 252.17 316.45 255.48 C 313.34 259.70 309.60 263.44 305.52 266.72 C 300.34 270.76 293.93 272.73 287.59 274.06 C 288.61 270.22 289.50 266.36 290.40 262.50 C 290.60 262.19 291.01 261.58 291.22 261.27 C 296.86 258.11 302.45 254.56 306.64 249.54 Z" />
<path fill="#f0a7ae" opacity="1.00" d=" M 174.60 242.94 C 181.60 240.05 190.59 238.33 197.18 243.03 C 191.53 248.96 182.81 248.85 175.25 248.61 C 174.90 248.33 174.21 247.78 173.86 247.50 C 173.22 246.87 172.59 246.24 171.95 245.62 C 172.81 244.71 173.68 243.79 174.60 242.94 Z" />
<path fill="#86c1e1" opacity="1.00" d=" M 155.51 242.13 C 160.87 243.77 166.29 245.50 171.95 245.62 C 172.59 246.24 173.22 246.87 173.86 247.50 C 174.83 250.56 175.44 253.86 177.33 256.53 C 179.94 259.98 183.58 262.41 187.01 264.97 C 187.25 272.36 190.16 279.29 193.58 285.73 C 193.51 286.01 193.37 286.57 193.30 286.84 C 183.21 288.19 173.42 284.21 164.88 279.23 C 161.23 277.05 158.40 273.75 156.72 269.85 C 154.51 272.74 153.09 276.09 151.63 279.40 C 151.10 274.37 151.27 269.31 151.31 264.27 C 152.02 258.70 153.82 253.36 156.09 248.24 C 157.15 246.26 155.81 244.11 155.51 242.13 Z" />
<path fill="#543233" opacity="1.00" d=" M 237.78 256.26 C 239.45 255.11 240.53 253.31 241.96 251.90 C 241.58 255.77 237.83 258.72 233.97 257.71 C 230.91 256.79 229.03 260.46 226.02 259.84 C 223.51 260.08 222.20 257.56 221.05 255.78 C 223.05 256.79 224.62 258.93 227.02 258.93 C 228.55 258.18 229.95 257.19 231.48 256.44 C 233.57 256.35 235.82 257.41 237.78 256.26 Z" />
<path fill="#86c1e1" opacity="1.00" d=" M 266.90 260.78 C 269.46 258.46 272.02 256.13 274.81 254.06 C 274.32 255.33 273.80 256.59 273.21 257.82 L 273.10 256.43 C 270.58 260.72 267.55 264.67 264.08 268.23 C 267.60 267.01 271.17 265.86 274.90 265.42 C 279.59 264.82 284.05 263.16 288.70 262.33 L 289.70 262.33 L 288.96 263.54 C 282.31 272.06 271.79 277.29 260.97 277.29 C 258.66 276.97 256.84 275.35 254.90 274.20 C 255.88 271.81 256.67 269.31 258.11 267.15 C 260.80 264.73 264.21 263.23 266.90 260.78 Z" />
<path fill="#543233" opacity="1.00" d=" M 264.08 268.23 C 267.55 264.67 270.58 260.72 273.10 256.43 L 273.21 257.82 C 271.72 260.90 269.47 263.52 267.32 266.15 C 273.90 264.36 280.85 264.04 287.19 261.33 C 287.57 261.58 288.32 262.08 288.70 262.33 C 284.05 263.16 279.59 264.82 274.90 265.42 C 271.17 265.86 267.60 267.01 264.08 268.23 Z" />
<path fill="#746263" opacity="1.00" d=" M 287.19 261.33 C 287.72 261.05 288.79 260.49 289.32 260.21 C 290.26 260.75 290.38 261.46 289.70 262.33 L 288.70 262.33 C 288.32 262.08 287.57 261.58 287.19 261.33 Z" />
<path fill="#624b4e" opacity="1.00" d=" M 150.33 260.53 C 150.65 261.77 150.97 263.02 151.31 264.27 C 151.27 269.31 151.10 274.37 151.63 279.40 C 153.09 276.09 154.51 272.74 156.72 269.85 C 158.40 273.75 161.23 277.05 164.88 279.23 C 173.42 284.21 183.21 288.19 193.30 286.84 C 193.37 286.57 193.51 286.01 193.58 285.73 L 193.94 284.27 C 194.36 285.05 195.22 286.62 195.65 287.40 C 191.84 288.18 187.92 288.81 184.06 288.08 C 180.69 287.71 177.56 286.13 174.18 285.96 C 170.51 288.67 167.15 292.03 164.95 296.06 C 162.94 299.93 163.94 304.41 165.16 308.36 C 177.89 300.57 191.46 294.32 205.12 288.36 C 203.87 300.25 203.72 312.44 206.30 324.16 C 214.13 321.33 222.12 318.01 230.60 318.18 C 230.09 318.65 229.08 319.60 228.57 320.07 C 228.82 320.50 229.31 321.37 229.56 321.80 C 230.50 321.04 231.93 320.23 231.89 318.85 C 231.71 318.59 231.35 318.08 231.17 317.82 C 231.50 317.60 232.17 317.16 232.50 316.94 C 237.04 319.64 241.51 322.48 246.25 324.84 C 246.56 325.30 247.17 326.22 247.48 326.68 C 246.10 326.13 244.75 325.50 243.32 325.09 C 242.74 325.67 241.57 326.83 240.98 327.40 C 240.46 326.92 239.94 326.45 239.42 325.97 C 240.08 325.44 241.39 324.37 242.05 323.84 C 240.41 324.85 238.82 325.90 237.21 326.95 C 239.68 329.03 242.72 331.03 243.43 334.42 C 244.39 338.13 243.07 341.86 241.60 345.23 C 256.92 361.64 275.85 374.25 295.51 384.86 C 293.74 368.12 290.74 351.56 287.99 334.96 C 287.25 330.25 286.02 325.59 285.88 320.80 C 286.77 322.44 287.62 324.15 287.90 326.02 C 289.87 337.55 291.75 349.10 293.70 360.64 C 295.31 369.88 296.13 379.22 297.66 388.47 C 297.87 394.74 299.16 400.87 300.01 407.06 C 300.36 408.65 298.62 409.62 297.77 410.73 C 294.78 412.35 291.68 413.78 288.62 415.27 C 292.50 420.29 296.71 425.03 301.01 429.68 C 308.86 439.70 317.23 449.33 324.51 459.77 C 322.38 459.49 321.40 457.44 320.15 455.97 C 309.75 442.10 298.46 428.96 287.12 415.86 C 274.07 420.95 260.50 426.49 246.21 425.63 C 249.26 423.25 253.50 424.64 257.04 423.72 C 269.05 421.48 280.61 417.15 291.75 412.22 C 294.26 411.04 296.63 409.57 298.87 407.94 C 297.38 401.78 296.89 395.47 295.96 389.22 L 294.81 388.76 C 281.36 384.50 269.45 376.36 258.96 367.09 C 252.06 360.85 244.75 355.05 238.22 348.42 C 236.22 349.01 234.21 349.57 232.20 350.11 C 231.21 354.95 230.47 359.85 230.23 364.80 C 233.70 365.46 238.88 364.26 240.91 367.92 C 240.35 369.27 239.61 370.54 238.92 371.83 C 235.79 371.65 232.66 371.45 229.54 371.18 C 229.41 371.89 229.15 373.33 229.02 374.05 C 231.56 374.77 234.42 374.86 236.60 376.50 C 238.10 377.56 237.92 379.53 238.19 381.14 C 233.45 382.08 228.52 382.90 223.76 381.66 L 223.98 381.27 C 228.37 380.08 233.33 381.67 237.57 379.23 C 235.22 376.09 231.03 376.74 228.06 374.91 C 227.97 373.11 228.15 371.31 228.28 369.52 C 231.41 369.84 234.50 370.51 237.64 370.75 C 238.54 369.84 239.52 368.75 238.98 367.39 C 235.81 366.43 232.47 366.34 229.19 366.33 C 228.74 360.72 229.71 355.15 230.99 349.72 C 229.77 349.41 228.55 349.11 227.33 348.81 C 224.68 359.36 223.33 370.20 222.99 381.06 C 221.97 379.22 221.56 377.14 221.81 375.06 C 222.55 366.02 223.65 356.94 226.23 348.22 C 225.03 347.00 223.83 345.77 222.64 344.55 C 214.62 352.55 206.28 360.25 198.78 368.76 C 193.36 374.70 187.89 380.59 182.53 386.59 C 180.35 389.08 177.70 391.19 175.94 394.02 C 174.67 398.31 174.64 402.85 174.20 407.28 C 187.07 412.42 199.41 419.09 212.92 422.48 C 217.49 413.57 221.65 404.42 225.01 394.98 C 226.00 392.11 227.30 389.35 228.99 386.83 C 232.79 400.13 236.90 413.51 243.99 425.48 C 240.81 424.41 239.78 421.06 238.45 418.35 C 237.76 418.04 237.07 417.74 236.39 417.45 L 238.59 417.61 C 237.43 414.60 234.34 416.47 232.15 416.61 C 227.47 417.82 222.61 417.02 218.09 415.53 C 216.76 418.58 215.20 421.53 213.18 424.18 C 209.55 423.13 205.92 422.07 202.33 420.89 C 195.84 418.14 189.34 415.40 182.91 412.51 C 182.01 413.65 181.11 414.80 180.25 415.99 C 174.12 425.68 169.46 436.23 164.84 446.70 C 164.74 446.21 164.53 445.23 164.43 444.74 C 165.28 441.68 166.75 438.85 168.10 435.99 C 172.10 427.74 175.88 419.30 181.41 411.93 C 178.78 410.71 176.07 409.67 173.25 408.99 C 173.08 405.72 172.99 402.44 173.34 399.19 C 174.53 391.62 175.73 384.05 177.02 376.50 C 175.20 377.79 173.40 379.10 171.58 380.39 C 163.61 386.07 155.16 391.02 146.42 395.41 C 143.77 396.48 144.28 399.82 143.66 402.09 C 142.92 408.71 140.23 414.83 138.09 421.06 C 134.99 431.75 131.50 442.83 133.19 454.10 C 134.25 461.84 138.04 469.04 143.58 474.53 C 148.92 467.00 154.71 459.81 159.91 452.18 C 161.43 450.27 163.13 448.50 164.82 446.74 C 164.79 447.17 164.72 448.04 164.68 448.48 C 158.12 457.45 151.01 466.06 144.96 475.40 C 144.23 475.30 142.77 475.12 142.04 475.03 C 135.46 467.99 131.34 458.70 131.24 449.02 C 131.21 438.24 134.50 427.82 137.75 417.66 C 140.62 411.05 142.07 403.99 143.21 396.91 C 133.44 401.57 123.34 406.23 112.57 407.84 C 114.54 406.73 116.60 405.79 118.74 405.06 C 128.01 402.60 136.79 398.65 145.34 394.37 C 154.68 389.83 163.60 384.44 172.05 378.41 C 174.56 376.45 178.08 374.66 178.12 371.01 C 179.68 360.75 182.04 350.63 183.43 340.35 C 185.74 331.12 187.93 321.87 190.29 312.66 C 191.52 315.92 189.97 319.29 189.34 322.51 C 183.87 343.77 180.70 365.52 176.62 387.07 C 189.61 369.73 205.77 355.20 220.76 339.66 C 220.98 336.20 222.31 333.00 224.30 330.20 C 222.73 327.16 221.23 324.09 219.80 320.99 C 215.40 322.20 211.27 324.19 206.88 325.37 C 204.15 324.77 204.31 321.37 203.80 319.21 C 202.73 309.78 202.45 300.21 203.37 290.76 C 190.06 296.58 176.65 302.45 164.64 310.72 C 157.66 315.32 151.22 320.67 144.20 325.22 C 127.54 335.99 110.69 346.67 92.36 354.45 C 89.71 365.99 88.81 378.32 92.85 389.67 C 94.84 397.56 99.17 404.92 105.97 409.59 C 107.62 409.31 109.27 409.03 110.92 408.75 C 109.30 409.86 107.53 410.70 105.71 411.43 C 101.33 415.48 95.43 417.11 89.91 418.93 C 82.56 421.37 75.06 416.98 70.28 411.61 C 64.57 405.37 62.86 396.76 62.06 388.61 C 58.60 388.67 55.13 388.43 51.76 387.57 C 51.76 387.23 51.74 386.56 51.74 386.23 C 54.82 382.61 58.38 379.44 61.69 376.06 C 61.85 375.32 62.18 373.83 62.34 373.09 L 62.39 372.93 C 62.61 372.86 63.05 372.71 63.27 372.64 C 63.61 382.39 62.73 392.46 66.14 401.82 C 68.62 409.12 74.50 415.18 81.80 417.73 C 90.15 419.17 98.05 414.61 105.21 410.88 C 103.24 409.11 101.21 407.41 99.31 405.57 C 92.56 397.48 89.70 386.78 88.80 376.46 C 88.36 369.03 88.91 361.40 91.54 354.38 C 82.96 355.86 74.56 358.64 67.05 363.08 C 63.61 365.00 64.36 369.60 63.93 372.87 C 63.44 372.09 62.97 371.31 62.52 370.53 L 62.61 368.90 C 62.74 368.32 62.99 367.17 63.12 366.60 C 56.45 370.46 50.56 375.82 43.24 378.43 C 45.87 376.01 48.87 374.07 51.88 372.19 C 56.55 369.19 61.47 366.50 65.51 362.62 C 73.08 357.56 81.89 354.50 90.89 353.30 C 99.87 348.89 109.22 345.12 117.71 339.74 C 130.92 331.78 144.18 323.81 156.45 314.42 C 158.89 312.61 161.42 310.92 163.93 309.21 C 162.85 306.29 161.81 303.22 162.38 300.06 C 162.98 293.52 168.46 289.12 172.99 285.03 C 166.45 282.71 160.35 278.97 156.08 273.42 C 154.02 277.62 153.10 282.21 152.44 286.80 C 148.74 278.58 149.32 269.26 150.33 260.53 M 223.78 319.84 C 224.68 321.95 225.75 323.99 226.91 325.97 C 227.32 324.82 229.84 323.78 228.45 322.45 C 227.50 320.70 225.85 319.52 223.78 319.84 M 230.82 322.93 C 231.64 324.40 232.80 325.63 233.88 326.92 C 235.74 325.59 237.61 324.27 239.48 322.97 C 237.70 321.77 235.87 320.66 234.03 319.58 C 232.93 320.67 231.81 321.74 230.82 322.93 M 221.63 320.57 C 222.72 323.72 223.58 327.39 226.49 329.40 C 225.82 326.05 224.02 322.98 221.63 320.57 M 228.32 326.80 C 229.30 327.51 231.35 326.35 230.74 325.11 C 229.75 324.27 227.84 325.60 228.32 326.80 M 222.96 341.94 C 225.22 348.23 234.07 350.39 239.03 345.96 C 242.08 342.69 243.07 337.58 241.61 333.38 C 239.94 329.51 235.64 328.09 231.81 327.48 C 225.68 328.96 220.70 335.65 222.96 341.94 M 212.77 349.79 C 200.07 362.55 186.76 374.98 176.79 390.08 C 180.03 387.56 182.36 384.14 185.17 381.19 C 192.10 374.43 198.23 366.92 205.00 360.01 C 210.54 354.50 216.17 349.07 221.66 343.50 C 221.62 342.95 221.54 341.84 221.51 341.28 C 218.38 343.89 215.66 346.93 212.77 349.79 M 239.58 347.83 C 245.35 353.61 251.74 358.73 257.82 364.18 C 265.46 371.10 273.71 377.54 283.03 382.06 C 287.26 383.85 291.33 386.32 295.99 386.82 C 291.12 384.61 286.48 381.97 282.12 378.88 C 267.04 369.66 252.61 359.15 240.54 346.17 C 240.30 346.58 239.82 347.42 239.58 347.83 M 53.51 386.82 C 56.38 387.05 59.26 387.21 62.13 387.48 C 61.92 384.18 61.90 380.88 62.09 377.58 C 59.10 380.52 55.92 383.35 53.51 386.82 M 224.26 401.53 C 226.79 401.76 229.34 401.84 231.88 401.78 C 230.69 398.07 229.63 394.32 228.58 390.57 C 226.82 394.09 225.52 397.81 224.26 401.53 M 223.38 402.99 C 221.99 406.79 220.28 410.47 218.65 414.18 C 224.43 416.59 230.79 415.90 236.67 414.26 C 235.22 410.58 233.74 406.90 232.53 403.14 C 229.48 403.20 226.43 403.16 223.38 402.99 Z" />
<path fill="#86c1e1" opacity="1.00" d=" M 187.94 265.62 C 194.72 268.89 201.51 272.44 208.97 273.92 C 216.72 275.39 224.63 275.54 232.49 275.72 C 232.37 276.19 232.13 277.12 232.01 277.59 C 227.18 278.64 222.59 280.47 217.92 282.02 C 205.99 282.21 194.03 276.02 187.94 265.62 Z" />
<path fill="#e3b3a7" opacity="1.00" d=" M 232.53 274.90 C 240.75 273.40 248.91 271.20 256.50 267.63 C 254.67 271.16 253.61 274.99 252.90 278.88 C 250.89 282.64 248.07 285.98 245.77 289.53 C 242.69 288.70 239.17 288.40 236.37 290.21 C 234.51 292.91 233.16 295.92 231.44 298.71 C 231.14 292.81 231.39 286.28 234.43 281.08 C 234.01 278.95 233.43 276.87 232.53 274.90 Z" />
<path fill="#ffedce" opacity="1.00" d=" M 280.03 273.05 C 282.80 271.01 285.45 268.81 288.07 266.58 C 287.09 269.49 286.91 272.79 285.19 275.41 C 283.63 274.29 281.84 273.63 280.03 273.05 Z" />
<path fill="#ffedce" opacity="1.00" d=" M 188.23 268.82 C 189.84 270.20 191.31 271.73 192.76 273.28 C 192.02 273.60 190.56 274.23 189.83 274.54 C 189.26 272.64 188.70 270.74 188.23 268.82 Z" />
<path fill="#73a475" opacity="1.00" d=" M 193.22 274.40 C 195.88 275.68 198.10 277.71 200.73 279.05 C 205.02 281.41 209.91 282.21 214.67 283.12 C 211.43 284.59 208.11 285.99 205.34 288.26 L 205.12 288.36 C 191.46 294.32 177.89 300.57 165.16 308.36 C 163.94 304.41 162.94 299.93 164.95 296.06 C 167.15 292.03 170.51 288.67 174.18 285.96 C 177.56 286.13 180.69 287.71 184.06 288.08 C 187.92 288.81 191.84 288.18 195.65 287.40 C 195.22 286.62 194.36 285.05 193.94 284.27 C 192.59 281.38 191.26 278.49 190.00 275.57 C 191.05 275.13 192.13 274.74 193.22 274.40 Z" />
<path fill="#73a475" opacity="1.00" d=" M 278.30 273.98 C 285.20 276.27 292.24 279.43 296.76 285.38 C 299.76 289.14 301.78 293.68 302.20 298.50 C 296.41 296.83 290.98 293.96 284.98 293.01 C 285.45 291.63 286.45 290.34 286.42 288.85 C 285.28 287.70 283.72 287.19 282.19 286.79 C 275.17 284.94 267.89 282.74 262.16 278.12 C 267.75 277.78 273.24 276.43 278.30 273.98 Z" />
<path fill="#cddae0" opacity="1.00" d=" M 254.94 275.59 C 260.94 279.50 267.22 283.04 273.88 285.71 C 266.21 290.50 256.87 291.20 248.63 294.65 C 246.89 295.42 244.99 295.72 243.12 295.96 C 246.01 291.28 249.13 286.75 252.28 282.25 C 253.72 280.28 254.37 277.92 254.94 275.59 Z" />
<path fill="#cddae0" opacity="1.00" d=" M 209.30 286.97 C 217.11 283.61 225.04 280.36 233.36 278.49 C 231.04 284.67 230.36 291.27 229.74 297.80 C 227.18 296.35 225.27 294.06 222.85 292.45 C 218.31 290.69 213.25 290.07 209.30 286.97 Z" />
<path fill="#fefefe" opacity="1.00" d=" M 273.88 285.71 C 277.63 287.00 281.49 287.97 285.33 288.98 C 278.06 303.92 266.16 316.32 252.55 325.68 C 250.60 327.33 248.23 325.44 246.25 324.84 C 241.51 322.48 237.04 319.64 232.50 316.94 C 232.17 317.16 231.50 317.60 231.17 317.82 L 230.60 318.18 C 222.12 318.01 214.13 321.33 206.30 324.16 C 203.72 312.44 203.87 300.25 205.12 288.36 L 205.34 288.26 C 206.66 287.84 208.00 287.45 209.30 286.97 C 213.25 290.07 218.31 290.69 222.85 292.45 C 225.27 294.06 227.18 296.35 229.74 297.80 C 229.35 303.68 229.21 309.57 229.33 315.47 C 230.28 315.48 231.23 315.49 232.18 315.51 C 235.15 308.64 239.01 302.20 243.12 295.96 C 244.99 295.72 246.89 295.42 248.63 294.65 C 256.87 291.20 266.21 290.50 273.88 285.71 Z" />
<path fill="#ffefe0" opacity="1.00" d=" M 236.37 290.21 C 239.17 288.40 242.69 288.70 245.77 289.53 C 240.19 297.72 235.18 306.29 230.64 315.08 C 230.65 309.65 230.10 304.02 231.44 298.71 C 233.16 295.92 234.51 292.91 236.37 290.21 Z" />
<path fill="#b6e6fa" opacity="1.00" d=" M 164.64 310.72 C 176.65 302.45 190.06 296.58 203.37 290.76 C 202.45 300.21 202.73 309.78 203.80 319.21 C 204.31 321.37 204.15 324.77 206.88 325.37 C 211.27 324.19 215.40 322.20 219.80 320.99 C 221.23 324.09 222.73 327.16 224.30 330.20 C 222.31 333.00 220.98 336.20 220.76 339.66 C 205.77 355.20 189.61 369.73 176.62 387.07 C 180.70 365.52 183.87 343.77 189.34 322.51 C 189.97 319.29 191.52 315.92 190.29 312.66 C 187.93 321.87 185.74 331.12 183.43 340.35 C 180.39 344.70 179.40 349.95 177.87 354.92 C 175.67 362.67 172.71 370.31 172.05 378.41 C 163.60 384.44 154.68 389.83 145.34 394.37 C 136.79 398.65 128.01 402.60 118.74 405.06 C 114.89 403.96 110.90 404.43 106.97 404.47 C 104.97 404.62 103.69 402.78 102.40 401.56 C 99.03 397.74 96.31 393.41 92.85 389.67 C 88.81 378.32 89.71 365.99 92.36 354.45 C 110.69 346.67 127.54 335.99 144.20 325.22 C 151.22 320.67 157.66 315.32 164.64 310.72 Z" />
<path fill="#90cbe6" opacity="1.00" d=" M 284.34 293.78 C 285.38 294.08 286.43 294.38 287.49 294.70 C 283.50 300.63 278.96 306.73 272.54 310.17 C 276.69 304.87 280.97 299.64 284.34 293.78 Z" />
<path fill="#b6e6fa" opacity="1.00" d=" M 287.49 294.70 C 298.20 298.12 308.62 302.42 318.84 307.12 C 329.19 310.96 339.21 315.63 348.77 321.18 C 359.15 326.25 368.66 332.90 379.06 337.94 C 384.69 340.70 391.11 340.20 397.14 341.29 C 392.53 350.70 389.39 360.72 386.02 370.62 C 381.97 376.16 378.98 382.37 375.18 388.07 C 374.31 389.11 373.60 390.85 371.95 390.62 C 368.80 390.68 365.66 390.69 362.54 391.11 C 349.37 388.09 337.37 381.61 324.63 377.29 C 318.02 374.89 311.64 371.88 305.41 368.65 C 304.92 365.69 304.19 362.76 302.94 360.03 C 297.40 347.30 291.82 334.56 287.68 321.28 C 287.23 321.16 286.33 320.92 285.88 320.80 C 286.02 325.59 287.25 330.25 287.99 334.96 C 290.74 351.56 293.74 368.12 295.51 384.86 C 275.85 374.25 256.92 361.64 241.60 345.23 C 243.07 341.86 244.39 338.13 243.43 334.42 C 242.72 331.03 239.68 329.03 237.21 326.95 C 238.82 325.90 240.41 324.85 242.05 323.84 C 241.39 324.37 240.08 325.44 239.42 325.97 C 239.94 326.45 240.46 326.92 240.98 327.40 C 241.57 326.83 242.74 325.67 243.32 325.09 C 244.75 325.50 246.10 326.13 247.48 326.68 C 249.38 327.69 251.75 328.18 253.52 326.60 C 260.41 321.81 266.81 316.31 272.54 310.17 C 278.96 306.73 283.50 300.63 287.49 294.70 Z" />
<path fill="#a7daeb" opacity="1.00" d=" M 230.60 318.18 L 231.17 317.82 C 231.35 318.08 231.71 318.59 231.89 318.85 C 231.93 320.23 230.50 321.04 229.56 321.80 C 229.31 321.37 228.82 320.50 228.57 320.07 C 229.08 319.60 230.09 318.65 230.60 318.18 Z" />
<path fill="#b6e5ed" opacity="1.00" d=" M 223.78 319.84 C 225.85 319.52 227.50 320.70 228.45 322.45 C 229.84 323.78 227.32 324.82 226.91 325.97 C 225.75 323.99 224.68 321.95 223.78 319.84 Z" />
<path fill="#b7e6fa" opacity="1.00" d=" M 230.82 322.93 C 231.81 321.74 232.93 320.67 234.03 319.58 C 235.87 320.66 237.70 321.77 239.48 322.97 C 237.61 324.27 235.74 325.59 233.88 326.92 C 232.80 325.63 231.64 324.40 230.82 322.93 Z" />
<path fill="#6f7d93" opacity="1.00" d=" M 221.63 320.57 C 224.02 322.98 225.82 326.05 226.49 329.40 C 223.58 327.39 222.72 323.72 221.63 320.57 Z" />
<path fill="#8dc5de" opacity="1.00" d=" M 285.88 320.80 C 286.33 320.92 287.23 321.16 287.68 321.28 C 291.82 334.56 297.40 347.30 302.94 360.03 C 304.19 362.76 304.92 365.69 305.41 368.65 C 302.32 367.11 299.29 365.44 296.52 363.37 C 296.45 362.99 296.31 362.23 296.23 361.84 C 295.60 361.54 294.33 360.94 293.70 360.64 C 291.75 349.10 289.87 337.55 287.90 326.02 C 287.62 324.15 286.77 322.44 285.88 320.80 Z" />
<path fill="#beeaf0" opacity="1.00" d=" M 228.32 326.80 C 227.84 325.60 229.75 324.27 230.74 325.11 C 231.35 326.35 229.30 327.51 228.32 326.80 Z" />
<path fill="#fff4a5" opacity="1.00" d=" M 222.96 341.94 C 220.70 335.65 225.68 328.96 231.81 327.48 C 235.64 328.09 239.94 329.51 241.61 333.38 C 243.07 337.58 242.08 342.69 239.03 345.96 C 234.07 350.39 225.22 348.23 222.96 341.94 M 229.53 333.57 C 226.76 336.11 226.26 341.01 229.49 343.40 C 233.33 346.58 238.99 341.38 237.51 337.09 C 236.75 333.89 232.25 331.57 229.53 333.57 Z" />
<path fill="#543233" opacity="1.00" d=" M 229.53 333.57 C 232.25 331.57 236.75 333.89 237.51 337.09 C 238.99 341.38 233.33 346.58 229.49 343.40 C 226.26 341.01 226.76 336.11 229.53 333.57 M 230.20 334.98 C 227.22 337.20 228.41 342.43 232.01 343.29 C 234.43 342.84 236.75 340.68 236.38 338.05 C 236.26 335.29 232.41 332.89 230.20 334.98 Z" />
<path fill="#b6e6fa" opacity="1.00" d=" M 230.20 334.98 C 232.41 332.89 236.26 335.29 236.38 338.05 C 236.75 340.68 234.43 342.84 232.01 343.29 C 228.41 342.43 227.22 337.20 230.20 334.98 Z" />
<path fill="#8dc5de" opacity="1.00" d=" M 177.87 354.92 C 179.40 349.95 180.39 344.70 183.43 340.35 C 182.04 350.63 179.68 360.75 178.12 371.01 C 178.08 374.66 174.56 376.45 172.05 378.41 C 172.71 370.31 175.67 362.67 177.87 354.92 Z" />
<path fill="#fefefe" opacity="1.00" d=" M 379.61 397.05 C 385.16 377.93 390.50 358.62 398.70 340.42 C 409.17 341.09 419.95 342.20 429.48 346.94 C 428.85 365.93 423.82 385.55 411.66 400.53 C 409.45 403.25 406.63 406.44 402.79 406.13 C 395.43 402.23 387.21 400.43 379.61 397.05 Z" />
<path fill="#6a788a" opacity="1.00" d=" M 212.77 349.79 C 215.66 346.93 218.38 343.89 221.51 341.28 C 221.54 341.84 221.62 342.95 221.66 343.50 C 216.17 349.07 210.54 354.50 205.00 360.01 C 198.23 366.92 192.10 374.43 185.17 381.19 C 182.36 384.14 180.03 387.56 176.79 390.08 C 186.76 374.98 200.07 362.55 212.77 349.79 Z" />
<path fill="#b6e6fa" opacity="1.00" d=" M 198.78 368.76 C 206.28 360.25 214.62 352.55 222.64 344.55 C 223.83 345.77 225.03 347.00 226.23 348.22 C 223.65 356.94 222.55 366.02 221.81 375.06 C 221.56 377.14 221.97 379.22 222.99 381.06 C 223.18 381.21 223.56 381.51 223.76 381.66 C 228.52 382.90 233.45 382.08 238.19 381.14 C 237.92 379.53 238.10 377.56 236.60 376.50 C 234.42 374.86 231.56 374.77 229.02 374.05 C 229.15 373.33 229.41 371.89 229.54 371.18 C 232.66 371.45 235.79 371.65 238.92 371.83 C 239.61 370.54 240.35 369.27 240.91 367.92 C 238.88 364.26 233.70 365.46 230.23 364.80 C 230.47 359.85 231.21 354.95 232.20 350.11 C 234.21 349.57 236.22 349.01 238.22 348.42 C 244.75 355.05 252.06 360.85 258.96 367.09 C 269.45 376.36 281.36 384.50 294.81 388.76 C 293.91 393.48 294.65 398.25 294.84 403.00 C 295.06 406.37 293.07 409.27 291.75 412.22 C 280.61 417.15 269.05 421.48 257.04 423.72 C 253.50 424.64 249.26 423.25 246.21 425.63 C 260.50 426.49 274.07 420.95 287.12 415.86 C 298.46 428.96 309.75 442.10 320.15 455.97 C 321.40 457.44 322.38 459.49 324.51 459.77 L 324.51 459.78 C 328.94 464.43 333.56 468.91 338.35 473.20 C 337.78 474.02 337.22 474.85 336.66 475.68 C 337.27 475.38 338.49 474.77 339.09 474.47 C 341.37 476.61 343.65 478.75 345.88 480.95 C 338.37 484.07 330.70 486.80 322.93 489.19 C 320.31 483.90 317.93 478.22 313.32 474.31 C 313.14 474.52 312.80 474.95 312.62 475.16 C 314.52 477.19 316.29 479.35 317.90 481.62 C 316.94 486.68 313.79 491.14 308.88 492.98 C 304.03 494.19 299.13 495.22 294.20 496.05 C 291.71 496.32 289.22 496.52 286.73 496.73 C 285.69 492.76 284.87 488.74 284.20 484.71 C 287.61 480.95 292.08 478.39 296.85 476.76 C 301.88 474.77 307.39 474.90 312.53 473.33 C 309.08 472.17 305.44 473.68 301.96 474.03 C 294.80 475.62 287.04 478.49 282.98 485.03 C 283.69 489.21 284.56 493.37 285.63 497.49 C 278.32 498.49 270.97 499.24 263.60 499.61 C 263.43 496.46 262.81 493.36 261.74 490.40 C 262.10 493.50 262.73 496.56 263.03 499.67 C 259.63 499.80 256.24 499.94 252.84 500.00 L 247.25 500.00 C 240.36 499.90 233.48 499.49 226.61 498.94 C 225.20 497.63 224.55 495.80 223.89 494.05 C 230.14 488.62 238.47 486.90 246.48 486.14 C 252.00 485.68 257.08 488.38 262.37 489.48 C 260.20 486.88 256.55 486.68 253.55 485.64 C 247.83 483.73 241.83 485.38 236.15 486.52 C 231.72 487.39 227.82 489.72 223.96 491.94 C 223.40 493.92 223.07 495.96 223.42 498.03 C 221.88 498.06 220.33 498.09 218.79 498.13 C 212.20 497.18 205.60 496.18 199.08 494.79 C 198.37 489.77 194.46 485.58 189.83 483.79 C 192.72 487.19 196.88 489.81 197.87 494.47 L 196.08 494.14 C 185.30 491.83 174.72 488.68 164.35 484.94 C 164.79 483.67 165.22 482.41 165.65 481.16 C 173.33 479.51 181.21 480.76 188.72 482.63 C 186.16 480.16 182.46 479.86 179.10 479.45 C 175.08 479.14 171.03 479.00 167.02 479.45 C 164.58 479.69 164.09 482.70 162.90 484.40 C 156.71 482.08 150.60 479.54 144.59 476.76 C 144.69 476.42 144.87 475.74 144.96 475.40 C 151.01 466.06 158.12 457.45 164.68 448.48 C 164.72 448.04 164.79 447.17 164.82 446.74 L 164.84 446.70 C 169.46 436.23 174.12 425.68 180.25 415.99 C 187.20 419.09 194.76 420.53 202.33 420.89 C 205.92 422.07 209.55 423.13 213.18 424.18 C 215.20 421.53 216.76 418.58 218.09 415.53 C 222.61 417.02 227.47 417.82 232.15 416.61 C 234.34 416.47 237.43 414.60 238.59 417.61 L 236.39 417.45 C 237.07 417.74 237.76 418.04 238.45 418.35 C 239.78 421.06 240.81 424.41 243.99 425.48 C 236.90 413.51 232.79 400.13 228.99 386.83 C 227.30 389.35 226.00 392.11 225.01 394.98 C 221.65 404.42 217.49 413.57 212.92 422.48 C 199.41 419.09 187.07 412.42 174.20 407.28 C 174.64 402.85 174.67 398.31 175.94 394.02 C 177.70 391.19 180.35 389.08 182.53 386.59 C 187.89 380.59 193.36 374.70 198.78 368.76 Z" />
<path fill="#6b798b" opacity="1.00" d=" M 239.58 347.83 C 239.82 347.42 240.30 346.58 240.54 346.17 C 252.61 359.15 267.04 369.66 282.12 378.88 C 286.48 381.97 291.12 384.61 295.99 386.82 C 291.33 386.32 287.26 383.85 283.03 382.06 C 273.71 377.54 265.46 371.10 257.82 364.18 C 251.74 358.73 245.35 353.61 239.58 347.83 Z" />
<path fill="#fff7a7" opacity="1.00" d=" M 227.33 348.81 C 228.55 349.11 229.77 349.41 230.99 349.72 C 229.71 355.15 228.74 360.72 229.19 366.33 C 232.47 366.34 235.81 366.43 238.98 367.39 C 239.52 368.75 238.54 369.84 237.64 370.75 C 234.50 370.51 231.41 369.84 228.28 369.52 C 228.15 371.31 227.97 373.11 228.06 374.91 C 231.03 376.74 235.22 376.09 237.57 379.23 C 233.33 381.67 228.37 380.08 223.98 381.27 L 223.76 381.66 C 223.56 381.51 223.18 381.21 222.99 381.06 C 223.33 370.20 224.68 359.36 227.33 348.81 Z" />
<path fill="#ffefe1" opacity="1.00" d=" M 430.67 349.21 C 437.99 351.13 445.63 350.38 453.04 349.48 C 446.56 353.93 438.79 355.85 431.82 359.38 C 431.34 358.99 430.37 358.22 429.89 357.83 C 430.07 354.95 430.58 352.10 430.67 349.21 Z" />
<path fill="#fefefe" opacity="1.00" d=" M 67.05 363.08 C 74.56 358.64 82.96 355.86 91.54 354.38 C 88.91 361.40 88.36 369.03 88.80 376.46 C 89.70 386.78 92.56 397.48 99.31 405.57 C 98.63 407.34 98.67 409.80 96.71 410.74 C 91.97 413.53 86.78 415.44 81.80 417.73 C 74.50 415.18 68.62 409.12 66.14 401.82 C 62.73 392.46 63.61 382.39 63.27 372.64 C 63.05 372.71 62.61 372.86 62.39 372.93 C 62.34 371.56 62.32 370.22 62.61 368.90 L 62.52 370.53 C 62.97 371.31 63.44 372.09 63.93 372.87 C 64.36 369.60 63.61 365.00 67.05 363.08 Z" />
<path fill="#ffdabd" opacity="1.00" d=" M 433.45 359.78 C 436.14 358.71 438.84 357.66 441.53 356.59 C 443.16 361.23 442.44 366.18 442.53 370.99 C 442.57 383.79 442.47 396.60 442.58 409.41 C 417.14 440.16 384.26 464.71 347.50 480.27 C 345.25 478.16 343.00 476.05 340.72 473.98 C 346.59 469.00 348.66 461.05 349.67 453.73 C 350.87 435.13 346.77 416.24 338.50 399.58 C 334.91 392.31 329.96 385.87 325.48 379.15 C 334.42 382.61 343.24 386.35 352.12 389.94 C 359.83 392.86 368.30 393.52 375.70 397.33 C 378.76 398.28 377.04 402.82 380.04 403.86 C 384.86 405.96 390.15 406.66 395.30 407.53 C 400.09 407.94 405.87 408.28 409.58 404.64 C 419.60 394.57 424.89 380.98 428.45 367.50 C 431.47 365.94 434.78 364.82 437.24 362.35 C 435.97 361.49 434.71 360.63 433.45 359.78 Z" />
<path fill="#f5f1e7" opacity="1.00" d=" M 429.66 359.31 C 431.67 360.29 433.64 361.36 435.43 362.72 C 433.17 363.93 430.83 365.00 428.49 366.02 C 428.86 363.78 429.26 361.54 429.66 359.31 Z" />
<path fill="#73a475" opacity="1.00" d=" M 293.70 360.64 C 294.33 360.94 295.60 361.54 296.23 361.84 C 296.31 362.23 296.45 362.99 296.52 363.37 C 296.60 363.77 296.77 364.57 296.85 364.97 C 298.45 366.17 300.17 367.21 301.92 368.20 C 300.50 374.96 299.88 381.90 297.66 388.47 C 296.13 379.22 295.31 369.88 293.70 360.64 Z" />
<path fill="#ffefe0" opacity="1.00" d=" M 43.24 378.43 C 50.56 375.82 56.45 370.46 63.12 366.60 C 62.99 367.17 62.74 368.32 62.61 368.90 C 62.32 370.22 62.34 371.56 62.39 372.93 L 62.34 373.09 C 62.18 373.83 61.85 375.32 61.69 376.06 C 58.38 379.44 54.82 382.61 51.74 386.23 C 51.66 384.39 51.58 382.56 51.53 380.73 C 53.35 380.75 55.18 380.48 56.76 379.53 C 51.77 379.26 46.76 379.46 41.77 379.12 C 42.14 378.95 42.87 378.60 43.24 378.43 Z" />
<path fill="#8fb792" opacity="1.00" d=" M 297.66 388.47 C 299.88 381.90 300.50 374.96 301.92 368.20 C 308.22 371.73 314.85 374.61 321.48 377.46 C 323.38 378.15 324.40 379.95 325.45 381.56 C 328.47 386.45 332.06 390.98 334.86 396.02 C 343.42 411.25 347.28 428.68 348.37 446.00 C 348.93 455.64 346.49 465.91 339.41 472.85 C 335.03 468.36 330.37 464.14 326.02 459.62 C 325.65 459.66 324.89 459.74 324.51 459.78 L 324.51 459.77 C 317.23 449.33 308.86 439.70 301.01 429.68 C 301.09 423.21 299.29 416.95 297.77 410.73 C 298.62 409.62 300.36 408.65 300.01 407.06 C 299.16 400.87 297.87 394.74 297.66 388.47 Z" />
<path fill="#8dc5de" opacity="1.00" d=" M 375.18 388.07 C 378.98 382.37 381.97 376.16 386.02 370.62 C 383.66 379.39 380.75 388.00 378.24 396.73 C 373.24 394.23 367.94 392.47 362.54 391.11 C 365.66 390.69 368.80 390.68 371.95 390.62 C 373.60 390.85 374.31 389.11 375.18 388.07 Z" />
<path fill="#6fa372" opacity="1.00" d=" M 171.58 380.39 C 173.40 379.10 175.20 377.79 177.02 376.50 C 175.73 384.05 174.53 391.62 173.34 399.19 C 173.47 392.88 172.86 386.56 171.58 380.39 Z" />
<path fill="#fff2e3" opacity="1.00" d=" M 53.51 386.82 C 55.92 383.35 59.10 380.52 62.09 377.58 C 61.90 380.88 61.92 384.18 62.13 387.48 C 59.26 387.21 56.38 387.05 53.51 386.82 Z" />
<path fill="#543233" opacity="1.00" d=" M 41.77 379.12 C 46.76 379.46 51.77 379.26 56.76 379.53 C 55.18 380.48 53.35 380.75 51.53 380.73 C 48.25 380.57 44.54 381.35 41.77 379.12 Z" />
<path fill="#8fb792" opacity="1.00" d=" M 146.42 395.41 C 155.16 391.02 163.61 386.07 171.58 380.39 C 172.86 386.56 173.47 392.88 173.34 399.19 C 172.99 402.44 173.08 405.72 173.25 408.99 C 170.07 423.74 163.63 437.58 159.91 452.18 C 154.71 459.81 148.92 467.00 143.58 474.53 C 138.04 469.04 134.25 461.84 133.19 454.10 C 131.50 442.83 134.99 431.75 138.09 421.06 C 140.23 414.83 142.92 408.71 143.66 402.09 C 144.28 399.82 143.77 396.48 146.42 395.41 Z" />
<path fill="#ffdabd" opacity="1.00" d=" M 51.76 387.57 C 55.13 388.43 58.60 388.67 62.06 388.61 C 62.86 396.76 64.57 405.37 70.28 411.61 C 75.06 416.98 82.56 421.37 89.91 418.93 C 95.43 417.11 101.33 415.48 105.71 411.43 C 107.53 410.70 109.30 409.86 110.92 408.75 C 111.47 408.44 112.02 408.14 112.57 407.84 C 123.34 406.23 133.44 401.57 143.21 396.91 C 142.07 403.99 140.62 411.05 137.75 417.66 C 134.50 427.82 131.21 438.24 131.24 449.02 C 131.34 458.70 135.46 467.99 142.04 475.03 C 142.77 475.12 144.23 475.30 144.96 475.40 C 144.87 475.74 144.69 476.42 144.59 476.76 C 108.04 459.74 75.72 433.74 51.27 401.67 C 51.60 396.98 51.75 392.27 51.76 387.57 Z" />
<path fill="#9ed9f2" opacity="1.00" d=" M 294.81 388.76 L 295.96 389.22 C 296.89 395.47 297.38 401.78 298.87 407.94 C 296.63 409.57 294.26 411.04 291.75 412.22 C 293.07 409.27 295.06 406.37 294.84 403.00 C 294.65 398.25 293.91 393.48 294.81 388.76 Z" />
<path fill="#8cc5de" opacity="1.00" d=" M 92.85 389.67 C 96.31 393.41 99.03 397.74 102.40 401.56 C 103.69 402.78 104.97 404.62 106.97 404.47 C 110.90 404.43 114.89 403.96 118.74 405.06 C 116.60 405.79 114.54 406.73 112.57 407.84 C 112.02 408.14 111.47 408.44 110.92 408.75 C 109.27 409.03 107.62 409.31 105.97 409.59 C 99.17 404.92 94.84 397.56 92.85 389.67 Z" />
<path fill="#6e778a" opacity="1.00" d=" M 224.26 401.53 C 225.52 397.81 226.82 394.09 228.58 390.57 C 229.63 394.32 230.69 398.07 231.88 401.78 C 229.34 401.84 226.79 401.76 224.26 401.53 Z" />
<path fill="#cddbe0" opacity="1.00" d=" M 379.61 397.05 C 387.21 400.43 395.43 402.23 402.79 406.13 C 396.79 407.28 390.79 405.47 384.96 404.22 C 382.81 403.51 379.96 403.24 378.87 400.95 C 379.00 399.63 379.33 398.34 379.61 397.05 Z" />
<path fill="#8dc5de" opacity="1.00" d=" M 223.38 402.99 C 226.43 403.16 229.48 403.20 232.53 403.14 C 233.74 406.90 235.22 410.58 236.67 414.26 C 230.79 415.90 224.43 416.59 218.65 414.18 C 220.28 410.47 221.99 406.79 223.38 402.99 Z" />
<path fill="#cddae0" opacity="1.00" d=" M 99.31 405.57 C 101.21 407.41 103.24 409.11 105.21 410.88 C 98.05 414.61 90.15 419.17 81.80 417.73 C 86.78 415.44 91.97 413.53 96.71 410.74 C 98.67 409.80 98.63 407.34 99.31 405.57 Z" />
<path fill="#73a475" opacity="1.00" d=" M 173.25 408.99 C 176.07 409.67 178.78 410.71 181.41 411.93 C 175.88 419.30 172.10 427.74 168.10 435.99 C 166.75 438.85 165.28 441.68 164.43 444.74 C 164.53 445.23 164.74 446.21 164.84 446.70 L 164.82 446.74 C 163.13 448.50 161.43 450.27 159.91 452.18 C 163.63 437.58 170.07 423.74 173.25 408.99 Z" />
<path fill="#73a475" opacity="1.00" d=" M 288.62 415.27 C 291.68 413.78 294.78 412.35 297.77 410.73 C 299.29 416.95 301.09 423.21 301.01 429.68 C 296.71 425.03 292.50 420.29 288.62 415.27 Z" />
<path fill="#8cc4dd" opacity="1.00" d=" M 180.25 415.99 C 181.11 414.80 182.01 413.65 182.91 412.51 C 189.34 415.40 195.84 418.14 202.33 420.89 C 194.76 420.53 187.20 419.09 180.25 415.99 Z" />
<path fill="#543233" opacity="1.00" d=" M 301.96 474.03 C 305.44 473.68 309.08 472.17 312.53 473.33 C 307.39 474.90 301.88 474.77 296.85 476.76 C 292.08 478.39 287.61 480.95 284.20 484.71 C 284.87 488.74 285.69 492.76 286.73 496.73 C 289.22 496.52 291.71 496.32 294.20 496.05 C 291.34 496.55 288.49 497.07 285.63 497.49 C 284.56 493.37 283.69 489.21 282.98 485.03 C 287.04 478.49 294.80 475.62 301.96 474.03 Z" />
<path fill="#543233" opacity="1.00" d=" M 313.32 474.31 C 317.93 478.22 320.31 483.90 322.93 489.19 C 322.62 489.29 321.99 489.48 321.67 489.57 C 320.67 487.42 319.66 485.26 318.69 483.10 C 317.86 486.28 316.29 489.16 314.26 491.73 C 312.47 492.14 310.67 492.56 308.88 492.98 C 313.79 491.14 316.94 486.68 317.90 481.62 C 316.29 479.35 314.52 477.19 312.62 475.16 C 312.80 474.95 313.14 474.52 313.32 474.31 Z" />
<path fill="#543233" opacity="1.00" d=" M 162.90 484.40 C 164.09 482.70 164.58 479.69 167.02 479.45 C 171.03 479.00 175.08 479.14 179.10 479.45 C 182.46 479.86 186.16 480.16 188.72 482.63 C 181.21 480.76 173.33 479.51 165.65 481.16 C 165.22 482.41 164.79 483.67 164.35 484.94 C 163.99 484.80 163.26 484.53 162.90 484.40 Z" />
<path fill="#543233" opacity="1.00" d=" M 189.83 483.79 C 194.46 485.58 198.37 489.77 199.08 494.79 C 198.08 494.57 197.08 494.35 196.08 494.14 L 197.87 494.47 C 196.88 489.81 192.72 487.19 189.83 483.79 Z" />
<path fill="#543233" opacity="1.00" d=" M 236.15 486.52 C 241.83 485.38 247.83 483.73 253.55 485.64 C 256.55 486.68 260.20 486.88 262.37 489.48 C 257.08 488.38 252.00 485.68 246.48 486.14 C 238.47 486.90 230.14 488.62 223.89 494.05 C 224.55 495.80 225.20 497.63 226.61 498.94 C 223.99 498.94 221.28 499.10 218.79 498.13 C 220.33 498.09 221.88 498.06 223.42 498.03 C 223.07 495.96 223.40 493.92 223.96 491.94 C 227.82 489.72 231.72 487.39 236.15 486.52 Z" />
<path fill="#b5e7fd" opacity="1.00" d=" M 318.69 483.10 C 319.66 485.26 320.67 487.42 321.67 489.57 C 319.21 490.31 316.72 490.99 314.26 491.73 C 316.29 489.16 317.86 486.28 318.69 483.10 Z" />
</svg>
