<svg t="1631088799828" class="icon" style="width: 1em;height: 1em;vertical-align: middle;fill: currentColor;overflow: hidden;" viewBox="0 0 1024 1024" version="1.1" xmlns="http://www.w3.org/2000/svg" p-id="2423"><path d="M747.8272 561.8176c-6.1952 6.912-16.64 8.0384-23.8592 2.1504-22.528-18.2784-70.1952-47.1552-126.9248-24.064-79.2064 32.256-101.0176 139.1616-45.6704 199.5264 38.4 41.8816 113.3568 118.528 155.5968 161.4848 17.1008 17.408 45.056 17.8176 62.6688 0.9216 44.3904-42.5472 121.856-117.1456 143.0528-138.9056 30.1568-31.0272 63.5904-110.7456 16.3328-180.6336-47.1552-69.8368-144.1792-61.9008-181.1968-20.48z" fill="#FF3369" p-id="2424"></path><path d="M493.2096 792.7296c-43.776-47.7696-61.0816-115.6096-46.336-181.4528C461.6704 545.536 506.6752 491.52 567.296 466.7904c54.016-22.016 112.128-18.5856 164.9152 8.6016 30.72-16.7936 67.7888-25.3952 105.4208-23.808 15.0528-61.184 11.776-133.888-33.8944-201.4208-83.968-124.2624-256.7168-110.08-322.56-36.4032-11.008 12.3392-29.5936 14.2848-42.4448 3.84-40.0896-32.512-125.0304-84.0192-225.9968-42.8544C71.68 232.2432 32.8704 422.5536 131.3792 529.9712c68.352 74.5984 201.7792 210.9952 277.0432 287.488 30.1056 30.6176 78.9504 31.6416 110.3872 2.6624-9.5232-10.0864-18.2272-19.3536-25.6-27.392z" fill="#FF4D7C" p-id="2425"></path><path d="M747.8272 561.8176c-6.1952 6.912-16.64 8.0384-23.8592 2.1504-22.528-18.2784-70.1952-47.1552-126.9248-24.064-79.2064 32.256-101.0176 139.1616-45.6704 199.5264 19.2 20.9408 47.5136 50.5344 76.288 80.2816 97.2288-71.7824 171.9808-172.288 211.6608-289.024-36.4032-2.9696-72.1408 9.472-91.4944 31.1296z" fill="#FF4D7C" p-id="2426"></path><path d="M481.1776 213.76c-11.008 12.3392-29.5936 14.2848-42.4448 3.84-40.0896-32.512-125.0304-84.0192-225.9968-42.8544C71.68 232.2432 32.8704 422.5536 131.3792 529.9712c39.1168 42.7008 99.584 105.6256 158.208 165.9904 55.808-17.664 108.1344-43.3152 155.5456-75.6224 0.5632-3.0208 1.0752-6.0928 1.7408-9.1136C461.6704 545.536 506.6752 491.52 567.296 466.7904c13.4656-5.4784 27.136-9.3696 40.96-11.7248 54.4768-82.3808 89.1904-178.944 97.28-283.0336-82.8928-31.5392-178.9952-9.0112-224.3584 41.728z" fill="#FF5F89" p-id="2427"></path><path d="M471.6032 221.0816c-10.4448 5.2224-23.2448 4.352-32.8704-3.4304-40.0896-32.512-125.0304-84.0192-225.9968-42.8544-126.3104 51.456-170.496 209.3568-107.6736 318.976 155.136-39.168 286.208-138.9568 366.5408-272.6912z" fill="#FF7196" p-id="2428"></path></svg>