<svg t="1631088615203" class="icon" style="width: 1em;height: 1em;vertical-align: middle;fill: currentColor;overflow: hidden;" viewBox="0 0 1024 1024" version="1.1" xmlns="http://www.w3.org/2000/svg" p-id="1767" data-spm-anchor-id="a313x.7781069.0.i30"><path d="M640.7168 163.6864a68.3008 68.3008 0 0 0-66.6624-3.1744L285.696 303.36H168.96c-37.8368 0-68.6592 30.7712-68.6592 68.6592v271.2064c0 37.8368 30.7712 68.6592 68.6592 68.6592h116.8384l288.6656 140.3392c9.5744 4.6592 19.8144 6.9632 30.0544 6.9632 12.6464 0 25.2416-3.5328 36.352-10.496 20.1728-12.6464 32.2048-34.3552 32.2048-58.1632V222.0032c0.1024-23.9104-12.032-45.7216-32.3584-58.3168z m-301.0048 431.9744c0 24.9344-20.224 45.1072-45.1072 45.1072s-45.1072-20.224-45.1072-45.1072v-172.544c0-24.9344 20.224-45.1072 45.1072-45.1072s45.1072 20.224 45.1072 45.1072v172.544zM750.7968 322.0992c-15.2576 0-30.1056-7.7312-38.6048-21.7088-12.9536-21.2992-6.144-49.0496 15.1552-62.0032l92.7232-56.32c21.2992-12.9536 49.0496-6.144 62.0032 15.104 12.9536 21.2992 6.144 49.0496-15.1552 62.0032l-92.7232 56.32a44.45696 44.45696 0 0 1-23.3984 6.6048zM892.0064 551.168h-105.6256c-24.9344 0-45.1072-20.224-45.1072-45.1072 0-24.9344 20.224-45.1072 45.1072-45.1072h105.6256c24.9344 0 45.1072 20.224 45.1072 45.1072 0.0512 24.8832-20.1728 45.1072-45.1072 45.1072zM843.4688 839.7312c-7.8336 0-15.7696-2.048-23.04-6.3488L727.7056 778.24c-21.4016-12.7488-28.4672-40.448-15.7184-61.8496 12.7488-21.4016 40.448-28.416 61.8496-15.7184l92.7232 55.1424c21.4016 12.7488 28.4672 40.448 15.7184 61.8496a45.13792 45.13792 0 0 1-38.8096 22.0672z" fill="#adadaa" p-id="1768" data-spm-anchor-id="a313x.7781069.0.i24" class=""></path><path d="M673.1776 628.6848V222.0032c0-23.9104-12.1344-45.7216-32.4608-58.3168a68.3008 68.3008 0 0 0-66.6624-3.1744L285.696 303.36H168.96c-37.8368 0-68.6592 30.7712-68.6592 68.6592v271.2064c0 37.8368 30.7712 68.6592 68.6592 68.6592h116.8384l177.4592 86.272c85.4016-35.072 158.208-94.4128 209.92-169.472z m-333.4656-33.024c0 24.9344-20.224 45.1072-45.1072 45.1072s-45.1072-20.224-45.1072-45.1072v-172.544c0-24.9344 20.224-45.1072 45.1072-45.1072s45.1072 20.224 45.1072 45.1072v172.544zM738.3552 231.7824l-11.008 6.656c-21.2992 12.9536-28.0576 40.704-15.1552 62.0032a45.09184 45.09184 0 0 0 38.6048 21.7088c1.28 0 2.5088-0.1536 3.7888-0.256a470.26176 470.26176 0 0 0-16.2304-90.112z" fill="#bfbfbf" p-id="1769" data-spm-anchor-id="a313x.7781069.0.i23" class=""></path><path d="M627.0464 193.024c0-12.2368-0.6144-24.3712-1.536-36.4032-16.7936-5.4272-35.1744-4.2496-51.456 3.84L285.696 303.36H168.96c-37.8368 0-68.6592 30.7712-68.6592 68.6592v271.2064c0 6.8608 1.024 13.4656 2.9184 19.712 16.7936 1.792 33.8432 2.816 51.0976 2.816 261.12 0 472.7296-211.6608 472.7296-472.7296zM249.4976 423.1168c0-24.9344 20.224-45.1072 45.1072-45.1072s45.1072 20.224 45.1072 45.1072v172.544c0 24.9344-20.224 45.1072-45.1072 45.1072s-45.1072-20.224-45.1072-45.1072v-172.544z" fill="#cdcdcd" p-id="1770" data-spm-anchor-id="a313x.7781069.0.i22" class=""></path><path d="M249.4976 447.1808v-24.064c0-24.9344 20.224-45.1072 45.1072-45.1072a44.9536 44.9536 0 0 1 35.4304 17.2544c60.5184-48.3328 108.9536-111.104 139.9296-183.2448L285.696 303.36H168.96c-37.8368 0-68.6592 30.7712-68.6592 68.6592v121.9072a470.55872 470.55872 0 0 0 149.1968-46.7456z" fill="#dbdbdb" p-id="1771" data-spm-anchor-id="a313x.7781069.0.i21" class=""></path></svg>