<svg t="1631088211509" class="icon" style="width: 1em;height: 1em;vertical-align: middle;fill: currentColor;overflow: hidden;" viewBox="0 0 1024 1024" version="1.1" xmlns="http://www.w3.org/2000/svg" p-id="867"><path d="M738.628683 807.086829H260.445659c-33.442341-0.074927-60.540878-28.996683-60.640781-64.711805V397.312c0.099902-35.715122 27.198439-64.686829 60.640781-64.761756h478.183024c33.442341 0.124878 60.515902 29.07161 60.590829 64.786732v345.013073c-0.099902 35.715122-27.173463 64.636878-60.590829 64.73678" fill="#FFE494" p-id="868"></path><path d="M497.564098 701.015415a125.277659 125.277659 0 0 0 123.978926-107.195317 15.684683 15.684683 0 0 0-15.36-18.107318h-217.262829a15.684683 15.684683 0 0 0-15.335024 18.107318 125.302634 125.302634 0 0 0 123.978927 107.195317" fill="#F6C435" p-id="869"></path><path d="M748.668878 342.190829c20.280195-6.568585 34.241561-26.074537 32.343415-47.32878a128.749268 128.749268 0 0 0-5.869269-28.796878c-35.390439-109.043512-205.399415-151.552-379.72917-94.957269-174.329756 56.619707-286.94478 190.913561-251.554342 299.957074 3.072 9.44078 7.168 18.357073 12.188098 26.723902 10.989268 18.332098 33.717073 25.899707 53.997268 19.331122L748.668878 342.165854z" fill="#9796ED" p-id="870"></path><path d="M363.819707 146.731707l10.065171 31.044683c4.470634 13.736585 19.381073 21.304195 33.092683 16.858537 13.736585-4.470634 21.354146-19.356098 16.883512-33.092683l-10.065171-31.019707a26.299317 26.299317 0 0 0-49.976195 16.234146M747.245268 646.293854l-80.49639-36.414439s11.538732 49.976195 66.934634 83.093853c-0.074927 0.649366-0.249756 1.24878-0.349658 1.948098-11.913366 84.76722 35.815024 160.842927 106.595902 169.934049 70.755902 9.091122 137.765463-52.273951 149.703805-137.041171 11.88839-84.742244-35.815024-160.842927-106.620878-169.909073-56.270049-7.242927-110.067512 30.170537-135.767415 88.413658z" fill="#9796ED" p-id="871"></path><path d="M890.380488 647.292878l-17.757659 88.913171a5.894244 5.894244 0 0 1-5.794341 4.745366h-15.934439a5.91922 5.91922 0 0 1-5.869269-6.768391l12.987318-88.888195a5.869268 5.869268 0 0 1 5.794341-5.070049h20.754732c3.746341 0 6.54361 3.421659 5.794341 7.068098m-20.529951 121.980878l-2.67239 14.610732a5.894244 5.894244 0 0 1-5.794342 4.845268h-18.781658a5.91922 5.91922 0 0 1-5.819317-6.843317l2.372683-14.585756a5.91922 5.91922 0 0 1 5.819317-4.995122h19.05639c3.721366 0 6.493659 3.346732 5.819317 6.993171" fill="#FFFFFF" p-id="872"></path></svg>