<svg t="1631088483787" class="icon" style="width: 1em;height: 1em;vertical-align: middle;fill: currentColor;overflow: hidden;" viewBox="0 0 1024 1024" version="1.1" xmlns="http://www.w3.org/2000/svg" p-id="1249" data-spm-anchor-id="a313x.7781069.0.i19"><path d="M682.0352 111.2576H244.992c-68.096 0-123.3408 55.1936-123.3408 123.3408v538.2656c0 68.096 55.1936 123.3408 123.3408 123.3408h291.0208a95.08352 95.08352 0 0 1-3.8912-47.4624l10.2912-60.0576-43.6224-42.496c-26.1632-25.4976-35.3792-62.8736-24.1152-97.5872 11.264-34.7136 40.7552-59.5456 76.8512-64.8192l60.2624-8.7552 26.9312-54.6304c16.1792-32.7168 48.896-53.0944 85.4016-53.0944 33.5872 0 63.8976 17.2544 81.152 45.4656V234.5472c0.1024-68.096-55.0912-123.2896-123.2384-123.2896zM393.216 655.0016H306.4832c-26.112 0-47.3088-21.1968-47.3088-47.3088s21.1968-47.3088 47.3088-47.3088H393.216c26.112 0 47.3088 21.1968 47.3088 47.3088s-21.1968 47.3088-47.3088 47.3088z m183.7056-155.8528H306.4832c-26.112 0-47.3088-21.1968-47.3088-47.3088s21.1968-47.3088 47.3088-47.3088h270.4896c26.112 0 47.3088 21.1968 47.3088 47.3088s-21.1968 47.3088-47.36 47.3088z m36.4544-155.8528H306.4832c-26.112 0-47.3088-21.1968-47.3088-47.3088s21.1968-47.3088 47.3088-47.3088h306.8928c26.112 0 47.3088 21.1968 47.3088 47.3088s-21.1968 47.3088-47.3088 47.3088z" fill="#01ae1a" p-id="1250" data-spm-anchor-id="a313x.7781069.0.i18" class=""></path><path d="M757.4528 546.0992l31.8976 64.6144a37.1712 37.1712 0 0 0 27.8528 20.2752l71.3216 10.3424c30.3616 4.4032 42.496 41.728 20.5312 63.1296l-51.6096 50.2784a37.08928 37.08928 0 0 0-10.6496 32.768l12.1856 71.0144c5.1712 30.2592-26.5728 53.2992-53.7088 39.0144l-63.744-33.536a36.95104 36.95104 0 0 0-34.4576 0l-63.744 33.536c-27.136 14.2848-58.88-8.8064-53.7088-39.0144l12.1856-71.0144c2.048-12.032-1.9456-24.2688-10.6496-32.768l-51.6096-50.2784c-21.9648-21.4016-9.8304-58.7264 20.5312-63.1296l71.3216-10.3424a36.93056 36.93056 0 0 0 27.8528-20.2752l31.8976-64.6144c13.4656-27.5456 52.6848-27.5456 66.304 0z" fill="#01ae1a" p-id="1251" data-spm-anchor-id="a313x.7781069.0.i17" class=""></path><path d="M724.224 467.2512c33.5872 0 63.8976 17.2544 81.152 45.4656V234.5472c0-68.096-55.1936-123.3408-123.3408-123.3408H244.992c-68.096 0-123.3408 55.1936-123.3408 123.3408v538.2656c0 68.096 55.1936 123.3408 123.3408 123.3408h66.048c79.2576-5.3248 154.4704-25.4976 222.8736-57.7536l8.5504-49.7152-43.6224-42.496c-26.1632-25.4976-35.3792-62.8736-24.1152-97.5872 11.264-34.7136 40.7552-59.5456 76.8512-64.8192l60.2624-8.7552 26.9312-54.6304c16.2304-32.8192 48.9472-53.1456 85.4528-53.1456zM393.216 655.0016H306.4832c-26.112 0-47.3088-21.1968-47.3088-47.3088 0-26.112 21.1968-47.3088 47.3088-47.3088H393.216c26.112 0 47.3088 21.1968 47.3088 47.3088 0 26.1632-21.1968 47.3088-47.3088 47.3088z m183.7056-155.8528H306.4832c-26.112 0-47.3088-21.1968-47.3088-47.3088s21.1968-47.3088 47.3088-47.3088h270.4896c26.112 0 47.3088 21.1968 47.3088 47.3088s-21.1968 47.3088-47.36 47.3088z m36.4544-155.8528H306.4832c-26.112 0-47.3088-21.1968-47.3088-47.3088s21.1968-47.3088 47.3088-47.3088h306.8928c26.112 0 47.3088 21.1968 47.3088 47.3088s-21.1968 47.3088-47.3088 47.3088z" fill="#13d52f" p-id="1252" data-spm-anchor-id="a313x.7781069.0.i15" class=""></path><path d="M599.0912 802.6624a625.08032 625.08032 0 0 0 191.8464-189.184c-0.5632-0.9216-1.1264-1.8432-1.6384-2.816l-31.8976-64.6144c-13.568-27.4944-52.8384-27.4944-66.4064 0l-31.8976 64.6144a37.1712 37.1712 0 0 1-27.8528 20.2752l-71.3216 10.3424c-30.3616 4.4032-42.496 41.728-20.5312 63.1296l51.6096 50.2784a37.08928 37.08928 0 0 1 10.6496 32.768l-2.56 15.2064z" fill="#13d52f" p-id="1253" data-spm-anchor-id="a313x.7781069.0.i16" class=""></path><path d="M682.0352 111.2576H244.992c-68.096 0-123.3408 55.1936-123.3408 123.3408v441.8048c56.1152-2.048 110.336-11.4688 161.6896-27.392a47.22688 47.22688 0 0 1-24.2176-41.2672c0-26.112 21.1968-47.3088 47.3088-47.3088H393.216c15.872 0 29.9008 7.8336 38.4512 19.8144 36.9152-23.4496 71.1168-50.688 102.1952-81.1008H306.4832c-26.112 0-47.3088-21.1968-47.3088-47.3088s21.1968-47.3088 47.3088-47.3088h270.4896c11.008 0 21.0944 3.7888 29.0816 10.0864a618.2912 618.2912 0 0 0 111.4112-298.1888c-11.2128-3.328-23.0912-5.1712-35.4304-5.1712zM613.376 343.296H306.4832c-26.112 0-47.3088-21.1968-47.3088-47.3088s21.1968-47.3088 47.3088-47.3088h306.8928c26.112 0 47.3088 21.1968 47.3088 47.3088s-21.1968 47.3088-47.3088 47.3088z" fill="#2ae345" p-id="1254" data-spm-anchor-id="a313x.7781069.0.i13" class=""></path><path d="M301.1584 342.9888c-23.6032-2.6624-41.984-22.6304-41.984-46.9504 0-26.112 21.1968-47.3088 47.3088-47.3088h100.096c36.8128-41.2672 68.1472-87.4496 92.9792-137.472H244.992c-68.096 0-123.3408 55.1936-123.3408 123.3408V430.592c64.9728-19.5072 125.44-49.3568 179.5072-87.6032z" fill="#58fd6f" p-id="1255" data-spm-anchor-id="a313x.7781069.0.i11" class=""></path></svg>