<?xml version="1.0" encoding="utf-8"?>
<!-- Generator: Adobe Illustrator 23.1.0, SVG Export Plug-In . SVG Version: 6.00 Build 0)  -->
<svg version="1.1" id="图层_1" xmlns="http://www.w3.org/2000/svg" xmlns:xlink="http://www.w3.org/1999/xlink" x="0px" y="0px"
	 viewBox="0 0 750 750" style="enable-background:new 0 0 750 750;" xml:space="preserve">
<style type="text/css">
	.st0{opacity:0.1;fill:#B3B3B3;}
	.st1{opacity:0.3;fill:#B3B3B3;}
	.st2{opacity:0.1;}
	.st3{fill:#B3B3B3;}
	.st4{opacity:0.35;fill:#B3B3B3;}
</style>
<g>
	<g>
		<path class="st0" d="M462.6,236.8L462.6,236.8c-77.3-0.6-141.1,58.3-148.1,133.9c-18.5-19.1-44.4-31.1-73.1-31.3h0
			c-56.8-0.4-103.2,45.3-103.6,102.1l-0.8,101.4l175.6,1.3l30.1,0.2l265.1,2l1.2-160.9C609.7,304,544.1,237.4,462.6,236.8z"/>
		<path class="st1" d="M217.4,227.4c-3.4,0-6.5,1.1-9,2.9c0.2-1,0.3-2,0.3-3c0.1-8.3-6.6-15.1-15-15.2s-15.1,6.6-15.2,15
			c0,0.3,0,0.6,0,0.9c-1.6-0.6-3.4-1-5.2-1c-8.3-0.1-15.1,6.6-15.2,15c-0.1,8.2,6.4,14.9,14.5,15.2l0,0l44.6,0.3
			c8.3,0.1,15.1-6.6,15.2-15S225.7,227.5,217.4,227.4z"/>
		<path class="st1" d="M596.9,194.2c-3.4,0-6.5,1.1-9,2.9c0.2-1,0.3-2,0.3-3c0.1-8.3-6.6-15.1-15-15.2s-15.1,6.6-15.2,15
			c0,0.3,0,0.6,0,0.9c-1.6-0.6-3.4-1-5.2-1c-8.3-0.1-15.1,6.6-15.2,15c-0.1,8.2,6.4,14.9,14.5,15.2l0,0l44.6,0.3
			c8.3,0.1,15.1-6.6,15.2-15S605.2,194.3,596.9,194.2z"/>
		<g>
			<g class="st2">
				<path class="st3" d="M497.4,497.5c-2.1,0-3.7,1.6-3.7,3.7c0,1.5,0.8,2.7,2,3.3l-0.5,65.1l3.5,0l0.5-65.3
					c1.1-0.6,1.8-1.8,1.8-3.1C501.1,499.1,499.5,497.6,497.4,497.5z"/>
				<path class="st3" d="M572.8,501.7c0-1.9-1.6-3.6-3.7-3.7c-2.1,0-3.7,1.6-3.7,3.7c0,1.4,0.8,2.6,1.9,3.2l-0.5,65.2l3.5,0
					l0.5-65.2C572,504.3,572.7,503.1,572.8,501.7z"/>
			</g>
			
				<rect x="523.2" y="472.2" transform="matrix(7.448311e-03 -1 1 7.448311e-03 9.179 1045.9733)" class="st0" width="16.5" height="92.3"/>
			<polygon class="st0" points="495.9,509.8 495.7,510.1 486,526.3 485.3,526.3 485.4,509.8 			"/>
			<polygon class="st0" points="519.2,510 509.3,526.5 496.8,526.4 500.7,519.8 506.5,509.9 			"/>
			<polygon class="st0" points="542.5,510.2 532.6,526.6 520.1,526.5 529.8,510.1 			"/>
			<polygon class="st0" points="565.8,510.4 556,526.8 543.4,526.7 553.2,510.3 			"/>
			<polygon class="st0" points="577.7,510.4 577.6,527 566.7,526.9 576.5,510.4 			"/>
			
				<rect x="523" y="497.7" transform="matrix(7.448311e-03 -1 1 7.448311e-03 -16.5187 1071.103)" class="st0" width="16.5" height="92.3"/>
			<polygon class="st0" points="495.7,535.3 495.5,535.6 485.8,551.8 485.1,551.8 485.2,535.3 			"/>
			<polygon class="st0" points="519,535.5 509.1,552 496.6,551.9 500.5,545.3 506.3,535.4 			"/>
			<polygon class="st0" points="542.3,535.7 532.4,552.1 519.9,552 529.6,535.6 			"/>
			<polygon class="st0" points="565.6,535.9 555.9,552.3 543.2,552.2 553,535.8 			"/>
			<polygon class="st0" points="577.5,536 577.4,552.5 566.5,552.4 576.3,536 			"/>
			<path class="st0" d="M577.6,527c0,0,0-0.1,0-0.3l0-0.9c0-0.7,0-1.8,0-3.2c0-2.8,0.1-6.9,0.1-12.2l0.1,0.1l-92.3-0.5l0,0l0.1-0.1
				c0,5.6-0.1,11.2-0.1,16.5l-0.1-0.1l65.8,0.6l19.5,0.1l5.3,0l0,0l-5.3,0l-19.5-0.1l-65.8-0.3l-0.3,0l0.1-16.8l0.1,0l92.3,0.8
				l0.1,0l0,0.1c0,5.3-0.1,9.4-0.1,12.2c0,1.5,0,2.5,0,3.2l0,0.7C577.6,526.8,577.6,527,577.6,527z"/>
			<path class="st0" d="M577.4,552.5c0,0,0-0.1,0-0.3l0-0.9c0-0.7,0-1.8,0-3.2c0-2.8,0.1-6.9,0.1-12.2l0.1,0.1l-92.3-0.5l0,0
				l0.1-0.1c0,5.6-0.1,11.2-0.1,16.5l-0.1-0.1l65.8,0.6l19.5,0.1l5.3,0l0,0l-5.3,0l-19.5-0.1l-65.8-0.3l-0.3,0l0.1-16.7l0.1,0
				l92.3,0.8l0.1,0l0,0.1c0,5.3-0.1,9.4-0.1,12.2c0,1.5,0,2.5,0,3.2l0,0.7C577.4,552.3,577.4,552.5,577.4,552.5z"/>
		</g>
	</g>
	<g>
		<path class="st4" d="M468.1,493.9c-1.7-1.3-2.2-3.7-1.1-5.5l7.5-13c1.1-1.9,3.3-2.6,5.3-1.8l10.6,4.3c1.6-5.3,2.5-10.9,2.5-16.7
			s-0.9-11.4-2.5-16.7l-10.6,4.3c-0.5,0.2-1.1,0.3-1.6,0.3c-1.5,0-2.9-0.8-3.7-2.1l-7.5-13c-1.1-1.9-0.6-4.2,1.1-5.5l9-7
			c-7.7-8.1-17.6-14-28.8-16.7l-1.6,11.3c-0.3,2.1-2.1,3.7-4.3,3.7h-15c-2.1,0-4-1.6-4.3-3.7l-1.6-11.3
			c-11.2,2.7-21.2,8.6-28.8,16.7l9,7c1.7,1.3,2.2,3.7,1.1,5.5l-7.5,13c-0.8,1.4-2.2,2.1-3.7,2.1c-0.5,0-1.1-0.1-1.6-0.3l-10.6-4.3
			c-1.6,5.3-2.5,10.9-2.5,16.7s0.9,11.4,2.5,16.7l10.6-4.3c2-0.8,4.3,0,5.3,1.8l7.5,13c1.1,1.9,0.6,4.2-1.1,5.5l-9,7
			c7.7,8.1,17.6,14,28.8,16.7l1.6-11.3c0.3-2.1,2.1-3.7,4.3-3.7h15c2.1,0,4,1.6,4.3,3.7l1.6,11.3c11.2-2.7,21.2-8.6,28.8-16.7
			L468.1,493.9z M434.9,475.1c-7.7,0-14-6.3-14-14s6.3-14,14-14s14,6.3,14,14S442.6,475.1,434.9,475.1z"/>
		<path class="st4" d="M364.1,455.5l17.2-29.8c2.3-4,7.2-5.8,11.5-4.4c7.6-8.1,17.6-14,28.8-16.6l0.6,4.7c0.6-5.3,1-10.6,1-16.1
			c0-13.2-2-26-5.6-38.1l-24.2,9.8c-1.2,0.5-2.5,0.7-3.7,0.7c-3.4,0-6.7-1.8-8.5-4.9l-17.2-29.8c-2.5-4.2-1.4-9.7,2.5-12.7l20.5-16
			c-17.5-18.6-40.3-32.1-65.9-38.1l-3.6,25.8c-0.7,4.9-4.8,8.5-9.7,8.5h-34.4c-4.9,0-9.1-3.6-9.7-8.5l-3.6-25.8
			c-25.6,6.1-48.4,19.6-65.9,38.2l20.5,16c3.9,3,4.9,8.4,2.5,12.7L200,360.8c-1.8,3.1-5.1,4.9-8.5,4.9c-1.2,0-2.5-0.2-3.7-0.7
			l-24.2-9.8c-3.6,12.1-5.6,24.9-5.6,38.1c0,13.2,2,26,5.6,38.1l24.2-9.8c4.6-1.8,9.8-0.1,12.2,4.2l17.2,29.8
			c2.5,4.2,1.4,9.7-2.5,12.7l-20.5,16c17.5,18.6,40.3,32.1,65.9,38.2l3.6-25.8c0.7-4.9,4.8-8.5,9.7-8.5h34.4c4.9,0,9.1,3.6,9.7,8.5
			l3.6,25.8c25.6-6.1,48.4-19.6,65.9-38.1l-20.5-16C362.7,465.2,361.6,459.8,364.1,455.5z M290.6,425.2c-17.6,0-31.9-14.3-31.9-31.9
			c0-17.6,14.3-31.9,31.9-31.9c17.6,0,31.9,14.3,31.9,31.9C322.6,410.9,308.2,425.2,290.6,425.2z"/>
	</g>
</g>
</svg>
